<mxfile host="Electron" modified="2023-11-21T21:17:43.324Z" agent="Mozilla/5.0 (Macintosh; Intel Mac OS X 10_15_7) AppleWebKit/537.36 (KHTML, like Gecko) draw.io/22.1.2 Chrome/114.0.5735.289 Electron/25.9.4 Safari/537.36" etag="Vfa5a1Z9SN0eD2bfVOL3" version="22.1.2" type="device">
  <diagram id="C5RBs43oDa-KdzZeNtuy" name="Page-1">
    <mxGraphModel dx="5044" dy="3922" grid="1" gridSize="10" guides="0" tooltips="1" connect="1" arrows="1" fold="1" page="0" pageScale="1" pageWidth="827" pageHeight="1169" math="0" shadow="0">
      <root>
        <mxCell id="WIyWlLk6GJQsqaUBKTNV-0" />
        <mxCell id="WIyWlLk6GJQsqaUBKTNV-1" parent="WIyWlLk6GJQsqaUBKTNV-0" />
        <mxCell id="5_1n4lwd3cMLtCb-UAz3-261" value="" style="rounded=0;whiteSpace=wrap;html=1;" vertex="1" parent="WIyWlLk6GJQsqaUBKTNV-1">
          <mxGeometry x="3530" y="-1920" width="1670" height="800" as="geometry" />
        </mxCell>
        <mxCell id="5_1n4lwd3cMLtCb-UAz3-136" style="edgeStyle=orthogonalEdgeStyle;rounded=0;orthogonalLoop=1;jettySize=auto;html=1;exitX=0.5;exitY=0;exitDx=0;exitDy=0;" edge="1" parent="WIyWlLk6GJQsqaUBKTNV-1" source="zkfFHV4jXpPFQw0GAbJ--0" target="5_1n4lwd3cMLtCb-UAz3-0">
          <mxGeometry relative="1" as="geometry">
            <Array as="points">
              <mxPoint x="155" y="40" />
              <mxPoint x="-280" y="40" />
            </Array>
          </mxGeometry>
        </mxCell>
        <mxCell id="zkfFHV4jXpPFQw0GAbJ--0" value="Sandwich" style="swimlane;fontStyle=2;align=center;verticalAlign=top;childLayout=stackLayout;horizontal=1;startSize=26;horizontalStack=0;resizeParent=1;resizeLast=0;collapsible=1;marginBottom=0;rounded=0;shadow=0;strokeWidth=1;" parent="WIyWlLk6GJQsqaUBKTNV-1" vertex="1">
          <mxGeometry y="110" width="310" height="320" as="geometry">
            <mxRectangle x="220" y="120" width="160" height="26" as="alternateBounds" />
          </mxGeometry>
        </mxCell>
        <mxCell id="zkfFHV4jXpPFQw0GAbJ--1" value="-bread: Bread" style="text;align=left;verticalAlign=top;spacingLeft=4;spacingRight=4;overflow=hidden;rotatable=0;points=[[0,0.5],[1,0.5]];portConstraint=eastwest;" parent="zkfFHV4jXpPFQw0GAbJ--0" vertex="1">
          <mxGeometry y="26" width="310" height="26" as="geometry" />
        </mxCell>
        <mxCell id="zkfFHV4jXpPFQw0GAbJ--2" value="-toppings:ArrayList&lt;Topping&gt;" style="text;align=left;verticalAlign=top;spacingLeft=4;spacingRight=4;overflow=hidden;rotatable=0;points=[[0,0.5],[1,0.5]];portConstraint=eastwest;rounded=0;shadow=0;html=0;" parent="zkfFHV4jXpPFQw0GAbJ--0" vertex="1">
          <mxGeometry y="52" width="310" height="26" as="geometry" />
        </mxCell>
        <mxCell id="5_1n4lwd3cMLtCb-UAz3-138" value="-toasted: bool" style="text;align=left;verticalAlign=top;spacingLeft=4;spacingRight=4;overflow=hidden;rotatable=0;points=[[0,0.5],[1,0.5]];portConstraint=eastwest;" vertex="1" parent="zkfFHV4jXpPFQw0GAbJ--0">
          <mxGeometry y="78" width="310" height="26" as="geometry" />
        </mxCell>
        <mxCell id="zkfFHV4jXpPFQw0GAbJ--4" value="" style="line;html=1;strokeWidth=1;align=left;verticalAlign=middle;spacingTop=-1;spacingLeft=3;spacingRight=3;rotatable=0;labelPosition=right;points=[];portConstraint=eastwest;" parent="zkfFHV4jXpPFQw0GAbJ--0" vertex="1">
          <mxGeometry y="104" width="310" height="8" as="geometry" />
        </mxCell>
        <mxCell id="5_1n4lwd3cMLtCb-UAz3-115" value="+Sandwich(bread:Bread, toppings ArrayList&lt;Topping&gt;)" style="text;align=left;verticalAlign=top;spacingLeft=4;spacingRight=4;overflow=hidden;rotatable=0;points=[[0,0.5],[1,0.5]];portConstraint=eastwest;rounded=0;shadow=0;html=0;" vertex="1" parent="zkfFHV4jXpPFQw0GAbJ--0">
          <mxGeometry y="112" width="310" height="26" as="geometry" />
        </mxCell>
        <mxCell id="5_1n4lwd3cMLtCb-UAz3-118" value="+ getBread(): Bread" style="text;align=left;verticalAlign=top;spacingLeft=4;spacingRight=4;overflow=hidden;rotatable=0;points=[[0,0.5],[1,0.5]];portConstraint=eastwest;" vertex="1" parent="zkfFHV4jXpPFQw0GAbJ--0">
          <mxGeometry y="138" width="310" height="26" as="geometry" />
        </mxCell>
        <mxCell id="5_1n4lwd3cMLtCb-UAz3-119" value="+ setBread(bread:Bread): void" style="text;align=left;verticalAlign=top;spacingLeft=4;spacingRight=4;overflow=hidden;rotatable=0;points=[[0,0.5],[1,0.5]];portConstraint=eastwest;" vertex="1" parent="zkfFHV4jXpPFQw0GAbJ--0">
          <mxGeometry y="164" width="310" height="26" as="geometry" />
        </mxCell>
        <mxCell id="5_1n4lwd3cMLtCb-UAz3-120" value="+ getTopping(): ArrayList&lt;Topping&gt;" style="text;align=left;verticalAlign=top;spacingLeft=4;spacingRight=4;overflow=hidden;rotatable=0;points=[[0,0.5],[1,0.5]];portConstraint=eastwest;" vertex="1" parent="zkfFHV4jXpPFQw0GAbJ--0">
          <mxGeometry y="190" width="310" height="26" as="geometry" />
        </mxCell>
        <mxCell id="5_1n4lwd3cMLtCb-UAz3-121" value="+ setTopping(toppings:ArrayList&lt;Topping&gt;): void" style="text;align=left;verticalAlign=top;spacingLeft=4;spacingRight=4;overflow=hidden;rotatable=0;points=[[0,0.5],[1,0.5]];portConstraint=eastwest;" vertex="1" parent="zkfFHV4jXpPFQw0GAbJ--0">
          <mxGeometry y="216" width="310" height="26" as="geometry" />
        </mxCell>
        <mxCell id="5_1n4lwd3cMLtCb-UAz3-139" value="+ getToasted(): bool" style="text;align=left;verticalAlign=top;spacingLeft=4;spacingRight=4;overflow=hidden;rotatable=0;points=[[0,0.5],[1,0.5]];portConstraint=eastwest;" vertex="1" parent="zkfFHV4jXpPFQw0GAbJ--0">
          <mxGeometry y="242" width="310" height="26" as="geometry" />
        </mxCell>
        <mxCell id="5_1n4lwd3cMLtCb-UAz3-140" value="+ setToasted(bool): void" style="text;align=left;verticalAlign=top;spacingLeft=4;spacingRight=4;overflow=hidden;rotatable=0;points=[[0,0.5],[1,0.5]];portConstraint=eastwest;" vertex="1" parent="zkfFHV4jXpPFQw0GAbJ--0">
          <mxGeometry y="268" width="310" height="26" as="geometry" />
        </mxCell>
        <mxCell id="5_1n4lwd3cMLtCb-UAz3-122" value="+ getPrice(): double" style="text;align=left;verticalAlign=top;spacingLeft=4;spacingRight=4;overflow=hidden;rotatable=0;points=[[0,0.5],[1,0.5]];portConstraint=eastwest;" vertex="1" parent="zkfFHV4jXpPFQw0GAbJ--0">
          <mxGeometry y="294" width="310" height="26" as="geometry" />
        </mxCell>
        <mxCell id="5_1n4lwd3cMLtCb-UAz3-137" style="edgeStyle=orthogonalEdgeStyle;rounded=0;orthogonalLoop=1;jettySize=auto;html=1;exitX=0.5;exitY=0;exitDx=0;exitDy=0;" edge="1" parent="WIyWlLk6GJQsqaUBKTNV-1" source="zkfFHV4jXpPFQw0GAbJ--6" target="5_1n4lwd3cMLtCb-UAz3-0">
          <mxGeometry relative="1" as="geometry">
            <Array as="points">
              <mxPoint x="480" y="110" />
              <mxPoint x="480" y="40" />
              <mxPoint x="-280" y="40" />
            </Array>
          </mxGeometry>
        </mxCell>
        <mxCell id="zkfFHV4jXpPFQw0GAbJ--6" value="Order" style="swimlane;fontStyle=0;align=center;verticalAlign=top;childLayout=stackLayout;horizontal=1;startSize=26;horizontalStack=0;resizeParent=1;resizeLast=0;collapsible=1;marginBottom=0;rounded=0;shadow=0;strokeWidth=1;" parent="WIyWlLk6GJQsqaUBKTNV-1" vertex="1">
          <mxGeometry x="330" y="110" width="310" height="332" as="geometry">
            <mxRectangle x="130" y="380" width="160" height="26" as="alternateBounds" />
          </mxGeometry>
        </mxCell>
        <mxCell id="zkfFHV4jXpPFQw0GAbJ--7" value="-sandwich: ArrayList&lt;Sandwich&gt;" style="text;align=left;verticalAlign=top;spacingLeft=4;spacingRight=4;overflow=hidden;rotatable=0;points=[[0,0.5],[1,0.5]];portConstraint=eastwest;" parent="zkfFHV4jXpPFQw0GAbJ--6" vertex="1">
          <mxGeometry y="26" width="310" height="26" as="geometry" />
        </mxCell>
        <mxCell id="zkfFHV4jXpPFQw0GAbJ--8" value="-drink:ArrayList&lt;Drink&gt;" style="text;align=left;verticalAlign=top;spacingLeft=4;spacingRight=4;overflow=hidden;rotatable=0;points=[[0,0.5],[1,0.5]];portConstraint=eastwest;rounded=0;shadow=0;html=0;" parent="zkfFHV4jXpPFQw0GAbJ--6" vertex="1">
          <mxGeometry y="52" width="310" height="26" as="geometry" />
        </mxCell>
        <mxCell id="5_1n4lwd3cMLtCb-UAz3-123" value="-chips:ArrayList&lt;Chips&gt;" style="text;align=left;verticalAlign=top;spacingLeft=4;spacingRight=4;overflow=hidden;rotatable=0;points=[[0,0.5],[1,0.5]];portConstraint=eastwest;rounded=0;shadow=0;html=0;" vertex="1" parent="zkfFHV4jXpPFQw0GAbJ--6">
          <mxGeometry y="78" width="310" height="26" as="geometry" />
        </mxCell>
        <mxCell id="zkfFHV4jXpPFQw0GAbJ--9" value="" style="line;html=1;strokeWidth=1;align=left;verticalAlign=middle;spacingTop=-1;spacingLeft=3;spacingRight=3;rotatable=0;labelPosition=right;points=[];portConstraint=eastwest;" parent="zkfFHV4jXpPFQw0GAbJ--6" vertex="1">
          <mxGeometry y="104" width="310" height="8" as="geometry" />
        </mxCell>
        <mxCell id="5_1n4lwd3cMLtCb-UAz3-126" value="+ Order(sandwich: ArrayList&lt;Sandwich&gt;, &#xa;drink:ArrayList&lt;Drink&gt;, chip:ArrayList&lt;Chip&gt;)" style="text;align=left;verticalAlign=top;spacingLeft=4;spacingRight=4;overflow=hidden;rotatable=0;points=[[0,0.5],[1,0.5]];portConstraint=eastwest;rounded=0;shadow=0;html=0;" vertex="1" parent="zkfFHV4jXpPFQw0GAbJ--6">
          <mxGeometry y="112" width="310" height="38" as="geometry" />
        </mxCell>
        <mxCell id="5_1n4lwd3cMLtCb-UAz3-124" value="+ getSandwich(): ArrayList&lt;Sandwich&gt;" style="text;align=left;verticalAlign=top;spacingLeft=4;spacingRight=4;overflow=hidden;rotatable=0;points=[[0,0.5],[1,0.5]];portConstraint=eastwest;" vertex="1" parent="zkfFHV4jXpPFQw0GAbJ--6">
          <mxGeometry y="150" width="310" height="26" as="geometry" />
        </mxCell>
        <mxCell id="5_1n4lwd3cMLtCb-UAz3-125" value="+ setSandwich(sandwich:ArrayList&lt;Sandwich&gt;): void" style="text;align=left;verticalAlign=top;spacingLeft=4;spacingRight=4;overflow=hidden;rotatable=0;points=[[0,0.5],[1,0.5]];portConstraint=eastwest;" vertex="1" parent="zkfFHV4jXpPFQw0GAbJ--6">
          <mxGeometry y="176" width="310" height="26" as="geometry" />
        </mxCell>
        <mxCell id="5_1n4lwd3cMLtCb-UAz3-127" value="+ getDrink(): ArrayList&lt;Drink&gt;" style="text;align=left;verticalAlign=top;spacingLeft=4;spacingRight=4;overflow=hidden;rotatable=0;points=[[0,0.5],[1,0.5]];portConstraint=eastwest;" vertex="1" parent="zkfFHV4jXpPFQw0GAbJ--6">
          <mxGeometry y="202" width="310" height="26" as="geometry" />
        </mxCell>
        <mxCell id="5_1n4lwd3cMLtCb-UAz3-128" value="+ setDrink(drink:ArrayList&lt;Drink&gt;): void" style="text;align=left;verticalAlign=top;spacingLeft=4;spacingRight=4;overflow=hidden;rotatable=0;points=[[0,0.5],[1,0.5]];portConstraint=eastwest;" vertex="1" parent="zkfFHV4jXpPFQw0GAbJ--6">
          <mxGeometry y="228" width="310" height="26" as="geometry" />
        </mxCell>
        <mxCell id="5_1n4lwd3cMLtCb-UAz3-130" value="+ setChip(chip:ArrayList&lt;Chips&gt;): void" style="text;align=left;verticalAlign=top;spacingLeft=4;spacingRight=4;overflow=hidden;rotatable=0;points=[[0,0.5],[1,0.5]];portConstraint=eastwest;" vertex="1" parent="zkfFHV4jXpPFQw0GAbJ--6">
          <mxGeometry y="254" width="310" height="26" as="geometry" />
        </mxCell>
        <mxCell id="5_1n4lwd3cMLtCb-UAz3-129" value="+ getChip(): ArrayList&lt;Chip&gt;" style="text;align=left;verticalAlign=top;spacingLeft=4;spacingRight=4;overflow=hidden;rotatable=0;points=[[0,0.5],[1,0.5]];portConstraint=eastwest;" vertex="1" parent="zkfFHV4jXpPFQw0GAbJ--6">
          <mxGeometry y="280" width="310" height="26" as="geometry" />
        </mxCell>
        <mxCell id="5_1n4lwd3cMLtCb-UAz3-131" value="+ getPrice(): double" style="text;align=left;verticalAlign=top;spacingLeft=4;spacingRight=4;overflow=hidden;rotatable=0;points=[[0,0.5],[1,0.5]];portConstraint=eastwest;" vertex="1" parent="zkfFHV4jXpPFQw0GAbJ--6">
          <mxGeometry y="306" width="310" height="26" as="geometry" />
        </mxCell>
        <mxCell id="5_1n4lwd3cMLtCb-UAz3-135" style="edgeStyle=orthogonalEdgeStyle;rounded=0;orthogonalLoop=1;jettySize=auto;html=1;exitX=0.5;exitY=0;exitDx=0;exitDy=0;" edge="1" parent="WIyWlLk6GJQsqaUBKTNV-1" source="zkfFHV4jXpPFQw0GAbJ--13" target="5_1n4lwd3cMLtCb-UAz3-0">
          <mxGeometry relative="1" as="geometry">
            <Array as="points">
              <mxPoint x="-390" y="60" />
              <mxPoint x="-280" y="60" />
            </Array>
          </mxGeometry>
        </mxCell>
        <mxCell id="zkfFHV4jXpPFQw0GAbJ--13" value="Toppings" style="swimlane;fontStyle=0;align=center;verticalAlign=top;childLayout=stackLayout;horizontal=1;startSize=26;horizontalStack=0;resizeParent=1;resizeLast=0;collapsible=1;marginBottom=0;rounded=0;shadow=0;strokeWidth=1;" parent="WIyWlLk6GJQsqaUBKTNV-1" vertex="1">
          <mxGeometry x="-470" y="80" width="160" height="164" as="geometry">
            <mxRectangle x="340" y="380" width="170" height="26" as="alternateBounds" />
          </mxGeometry>
        </mxCell>
        <mxCell id="zkfFHV4jXpPFQw0GAbJ--14" value="-size: int" style="text;align=left;verticalAlign=top;spacingLeft=4;spacingRight=4;overflow=hidden;rotatable=0;points=[[0,0.5],[1,0.5]];portConstraint=eastwest;" parent="zkfFHV4jXpPFQw0GAbJ--13" vertex="1">
          <mxGeometry y="26" width="160" height="26" as="geometry" />
        </mxCell>
        <mxCell id="zkfFHV4jXpPFQw0GAbJ--15" value="" style="line;html=1;strokeWidth=1;align=left;verticalAlign=middle;spacingTop=-1;spacingLeft=3;spacingRight=3;rotatable=0;labelPosition=right;points=[];portConstraint=eastwest;" parent="zkfFHV4jXpPFQw0GAbJ--13" vertex="1">
          <mxGeometry y="52" width="160" height="8" as="geometry" />
        </mxCell>
        <mxCell id="5_1n4lwd3cMLtCb-UAz3-41" value="+ Toppings(size:int)" style="text;align=left;verticalAlign=top;spacingLeft=4;spacingRight=4;overflow=hidden;rotatable=0;points=[[0,0.5],[1,0.5]];portConstraint=eastwest;" vertex="1" parent="zkfFHV4jXpPFQw0GAbJ--13">
          <mxGeometry y="60" width="160" height="26" as="geometry" />
        </mxCell>
        <mxCell id="5_1n4lwd3cMLtCb-UAz3-47" value="+ getSize(): int" style="text;align=left;verticalAlign=top;spacingLeft=4;spacingRight=4;overflow=hidden;rotatable=0;points=[[0,0.5],[1,0.5]];portConstraint=eastwest;" vertex="1" parent="zkfFHV4jXpPFQw0GAbJ--13">
          <mxGeometry y="86" width="160" height="26" as="geometry" />
        </mxCell>
        <mxCell id="5_1n4lwd3cMLtCb-UAz3-48" value="+ setSize(size:int): void" style="text;align=left;verticalAlign=top;spacingLeft=4;spacingRight=4;overflow=hidden;rotatable=0;points=[[0,0.5],[1,0.5]];portConstraint=eastwest;" vertex="1" parent="zkfFHV4jXpPFQw0GAbJ--13">
          <mxGeometry y="112" width="160" height="26" as="geometry" />
        </mxCell>
        <mxCell id="5_1n4lwd3cMLtCb-UAz3-68" value="+ getPrice(): double" style="text;align=left;verticalAlign=top;spacingLeft=4;spacingRight=4;overflow=hidden;rotatable=0;points=[[0,0.5],[1,0.5]];portConstraint=eastwest;" vertex="1" parent="zkfFHV4jXpPFQw0GAbJ--13">
          <mxGeometry y="138" width="160" height="26" as="geometry" />
        </mxCell>
        <mxCell id="5_1n4lwd3cMLtCb-UAz3-0" value="IPrice" style="swimlane;fontStyle=0;align=center;verticalAlign=top;childLayout=stackLayout;horizontal=1;startSize=26;horizontalStack=0;resizeParent=1;resizeLast=0;collapsible=1;marginBottom=0;rounded=0;shadow=0;strokeWidth=1;" vertex="1" parent="WIyWlLk6GJQsqaUBKTNV-1">
          <mxGeometry x="-360" y="-160" width="160" height="60" as="geometry">
            <mxRectangle x="340" y="380" width="170" height="26" as="alternateBounds" />
          </mxGeometry>
        </mxCell>
        <mxCell id="5_1n4lwd3cMLtCb-UAz3-1" value="+ GetPrice() : double" style="text;align=left;verticalAlign=top;spacingLeft=4;spacingRight=4;overflow=hidden;rotatable=0;points=[[0,0.5],[1,0.5]];portConstraint=eastwest;" vertex="1" parent="5_1n4lwd3cMLtCb-UAz3-0">
          <mxGeometry y="26" width="160" height="26" as="geometry" />
        </mxCell>
        <mxCell id="5_1n4lwd3cMLtCb-UAz3-132" style="edgeStyle=orthogonalEdgeStyle;rounded=0;orthogonalLoop=1;jettySize=auto;html=1;exitX=0.5;exitY=0;exitDx=0;exitDy=0;" edge="1" parent="WIyWlLk6GJQsqaUBKTNV-1" source="5_1n4lwd3cMLtCb-UAz3-3" target="5_1n4lwd3cMLtCb-UAz3-0">
          <mxGeometry relative="1" as="geometry" />
        </mxCell>
        <mxCell id="5_1n4lwd3cMLtCb-UAz3-3" value="Bread" style="swimlane;fontStyle=0;align=center;verticalAlign=top;childLayout=stackLayout;horizontal=1;startSize=26;horizontalStack=0;resizeParent=1;resizeLast=0;collapsible=1;marginBottom=0;rounded=0;shadow=0;strokeWidth=1;" vertex="1" parent="WIyWlLk6GJQsqaUBKTNV-1">
          <mxGeometry x="-1305" y="90" width="190" height="164" as="geometry">
            <mxRectangle x="340" y="380" width="170" height="26" as="alternateBounds" />
          </mxGeometry>
        </mxCell>
        <mxCell id="5_1n4lwd3cMLtCb-UAz3-4" value="- size: int" style="text;align=left;verticalAlign=top;spacingLeft=4;spacingRight=4;overflow=hidden;rotatable=0;points=[[0,0.5],[1,0.5]];portConstraint=eastwest;" vertex="1" parent="5_1n4lwd3cMLtCb-UAz3-3">
          <mxGeometry y="26" width="190" height="26" as="geometry" />
        </mxCell>
        <mxCell id="5_1n4lwd3cMLtCb-UAz3-5" value="" style="line;html=1;strokeWidth=1;align=left;verticalAlign=middle;spacingTop=-1;spacingLeft=3;spacingRight=3;rotatable=0;labelPosition=right;points=[];portConstraint=eastwest;" vertex="1" parent="5_1n4lwd3cMLtCb-UAz3-3">
          <mxGeometry y="52" width="190" height="8" as="geometry" />
        </mxCell>
        <mxCell id="5_1n4lwd3cMLtCb-UAz3-22" value="+ Bread(size: int, price: double)" style="text;align=left;verticalAlign=top;spacingLeft=4;spacingRight=4;overflow=hidden;rotatable=0;points=[[0,0.5],[1,0.5]];portConstraint=eastwest;" vertex="1" parent="5_1n4lwd3cMLtCb-UAz3-3">
          <mxGeometry y="60" width="190" height="26" as="geometry" />
        </mxCell>
        <mxCell id="5_1n4lwd3cMLtCb-UAz3-14" value="+ getSize(): int" style="text;align=left;verticalAlign=top;spacingLeft=4;spacingRight=4;overflow=hidden;rotatable=0;points=[[0,0.5],[1,0.5]];portConstraint=eastwest;" vertex="1" parent="5_1n4lwd3cMLtCb-UAz3-3">
          <mxGeometry y="86" width="190" height="26" as="geometry" />
        </mxCell>
        <mxCell id="5_1n4lwd3cMLtCb-UAz3-15" value="+ setSize(int): void" style="text;align=left;verticalAlign=top;spacingLeft=4;spacingRight=4;overflow=hidden;rotatable=0;points=[[0,0.5],[1,0.5]];portConstraint=eastwest;" vertex="1" parent="5_1n4lwd3cMLtCb-UAz3-3">
          <mxGeometry y="112" width="190" height="26" as="geometry" />
        </mxCell>
        <mxCell id="5_1n4lwd3cMLtCb-UAz3-67" value="+ getPrice(): double" style="text;align=left;verticalAlign=top;spacingLeft=4;spacingRight=4;overflow=hidden;rotatable=0;points=[[0,0.5],[1,0.5]];portConstraint=eastwest;" vertex="1" parent="5_1n4lwd3cMLtCb-UAz3-3">
          <mxGeometry y="138" width="190" height="26" as="geometry" />
        </mxCell>
        <mxCell id="5_1n4lwd3cMLtCb-UAz3-134" style="edgeStyle=orthogonalEdgeStyle;rounded=0;orthogonalLoop=1;jettySize=auto;html=1;exitX=0.5;exitY=0;exitDx=0;exitDy=0;" edge="1" parent="WIyWlLk6GJQsqaUBKTNV-1" source="5_1n4lwd3cMLtCb-UAz3-6" target="5_1n4lwd3cMLtCb-UAz3-0">
          <mxGeometry relative="1" as="geometry">
            <Array as="points">
              <mxPoint x="-680" y="40" />
              <mxPoint x="-280" y="40" />
            </Array>
          </mxGeometry>
        </mxCell>
        <mxCell id="5_1n4lwd3cMLtCb-UAz3-6" value="Drink" style="swimlane;fontStyle=0;align=center;verticalAlign=top;childLayout=stackLayout;horizontal=1;startSize=26;horizontalStack=0;resizeParent=1;resizeLast=0;collapsible=1;marginBottom=0;rounded=0;shadow=0;strokeWidth=1;" vertex="1" parent="WIyWlLk6GJQsqaUBKTNV-1">
          <mxGeometry x="-760" y="80" width="160" height="164" as="geometry">
            <mxRectangle x="340" y="380" width="170" height="26" as="alternateBounds" />
          </mxGeometry>
        </mxCell>
        <mxCell id="5_1n4lwd3cMLtCb-UAz3-7" value="- size: int" style="text;align=left;verticalAlign=top;spacingLeft=4;spacingRight=4;overflow=hidden;rotatable=0;points=[[0,0.5],[1,0.5]];portConstraint=eastwest;" vertex="1" parent="5_1n4lwd3cMLtCb-UAz3-6">
          <mxGeometry y="26" width="160" height="26" as="geometry" />
        </mxCell>
        <mxCell id="5_1n4lwd3cMLtCb-UAz3-8" value="" style="line;html=1;strokeWidth=1;align=left;verticalAlign=middle;spacingTop=-1;spacingLeft=3;spacingRight=3;rotatable=0;labelPosition=right;points=[];portConstraint=eastwest;" vertex="1" parent="5_1n4lwd3cMLtCb-UAz3-6">
          <mxGeometry y="52" width="160" height="8" as="geometry" />
        </mxCell>
        <mxCell id="5_1n4lwd3cMLtCb-UAz3-92" value="+ Drink(size:int)" style="text;align=left;verticalAlign=top;spacingLeft=4;spacingRight=4;overflow=hidden;rotatable=0;points=[[0,0.5],[1,0.5]];portConstraint=eastwest;" vertex="1" parent="5_1n4lwd3cMLtCb-UAz3-6">
          <mxGeometry y="60" width="160" height="26" as="geometry" />
        </mxCell>
        <mxCell id="5_1n4lwd3cMLtCb-UAz3-99" value="+ getSize(): int" style="text;align=left;verticalAlign=top;spacingLeft=4;spacingRight=4;overflow=hidden;rotatable=0;points=[[0,0.5],[1,0.5]];portConstraint=eastwest;" vertex="1" parent="5_1n4lwd3cMLtCb-UAz3-6">
          <mxGeometry y="86" width="160" height="26" as="geometry" />
        </mxCell>
        <mxCell id="5_1n4lwd3cMLtCb-UAz3-100" value="+ setSize(size:int): void" style="text;align=left;verticalAlign=top;spacingLeft=4;spacingRight=4;overflow=hidden;rotatable=0;points=[[0,0.5],[1,0.5]];portConstraint=eastwest;" vertex="1" parent="5_1n4lwd3cMLtCb-UAz3-6">
          <mxGeometry y="112" width="160" height="26" as="geometry" />
        </mxCell>
        <mxCell id="5_1n4lwd3cMLtCb-UAz3-113" value="+ getPrice(): double" style="text;align=left;verticalAlign=top;spacingLeft=4;spacingRight=4;overflow=hidden;rotatable=0;points=[[0,0.5],[1,0.5]];portConstraint=eastwest;" vertex="1" parent="5_1n4lwd3cMLtCb-UAz3-6">
          <mxGeometry y="138" width="160" height="26" as="geometry" />
        </mxCell>
        <mxCell id="5_1n4lwd3cMLtCb-UAz3-34" style="edgeStyle=orthogonalEdgeStyle;rounded=0;orthogonalLoop=1;jettySize=auto;html=1;entryX=0.5;entryY=1;entryDx=0;entryDy=0;" edge="1" parent="WIyWlLk6GJQsqaUBKTNV-1" source="5_1n4lwd3cMLtCb-UAz3-19" target="5_1n4lwd3cMLtCb-UAz3-3">
          <mxGeometry relative="1" as="geometry">
            <Array as="points">
              <mxPoint x="-1545" y="280" />
              <mxPoint x="-1210" y="280" />
            </Array>
          </mxGeometry>
        </mxCell>
        <mxCell id="5_1n4lwd3cMLtCb-UAz3-19" value="WhiteBread" style="swimlane;fontStyle=0;align=center;verticalAlign=top;childLayout=stackLayout;horizontal=1;startSize=26;horizontalStack=0;resizeParent=1;resizeLast=0;collapsible=1;marginBottom=0;rounded=0;shadow=0;strokeWidth=1;" vertex="1" parent="WIyWlLk6GJQsqaUBKTNV-1">
          <mxGeometry x="-1645" y="340" width="200" height="78" as="geometry">
            <mxRectangle x="340" y="380" width="170" height="26" as="alternateBounds" />
          </mxGeometry>
        </mxCell>
        <mxCell id="5_1n4lwd3cMLtCb-UAz3-23" value="+ WhiteBread(size: int, price: double)" style="text;align=left;verticalAlign=top;spacingLeft=4;spacingRight=4;overflow=hidden;rotatable=0;points=[[0,0.5],[1,0.5]];portConstraint=eastwest;" vertex="1" parent="5_1n4lwd3cMLtCb-UAz3-19">
          <mxGeometry y="26" width="200" height="26" as="geometry" />
        </mxCell>
        <mxCell id="5_1n4lwd3cMLtCb-UAz3-63" value="+ getPrice(): double" style="text;align=left;verticalAlign=top;spacingLeft=4;spacingRight=4;overflow=hidden;rotatable=0;points=[[0,0.5],[1,0.5]];portConstraint=eastwest;" vertex="1" parent="5_1n4lwd3cMLtCb-UAz3-19">
          <mxGeometry y="52" width="200" height="26" as="geometry" />
        </mxCell>
        <mxCell id="5_1n4lwd3cMLtCb-UAz3-33" style="edgeStyle=orthogonalEdgeStyle;rounded=0;orthogonalLoop=1;jettySize=auto;html=1;entryX=0.5;entryY=1;entryDx=0;entryDy=0;" edge="1" parent="WIyWlLk6GJQsqaUBKTNV-1" source="5_1n4lwd3cMLtCb-UAz3-24" target="5_1n4lwd3cMLtCb-UAz3-3">
          <mxGeometry relative="1" as="geometry">
            <mxPoint x="-1214.9999999999998" y="230" as="targetPoint" />
            <Array as="points">
              <mxPoint x="-1330" y="300" />
              <mxPoint x="-1210" y="300" />
            </Array>
          </mxGeometry>
        </mxCell>
        <mxCell id="5_1n4lwd3cMLtCb-UAz3-24" value="WheatBread" style="swimlane;fontStyle=0;align=center;verticalAlign=top;childLayout=stackLayout;horizontal=1;startSize=26;horizontalStack=0;resizeParent=1;resizeLast=0;collapsible=1;marginBottom=0;rounded=0;shadow=0;strokeWidth=1;" vertex="1" parent="WIyWlLk6GJQsqaUBKTNV-1">
          <mxGeometry x="-1435" y="340" width="210" height="78" as="geometry">
            <mxRectangle x="340" y="380" width="170" height="26" as="alternateBounds" />
          </mxGeometry>
        </mxCell>
        <mxCell id="5_1n4lwd3cMLtCb-UAz3-25" value="+ WheatBread(size: int, price: double)" style="text;align=left;verticalAlign=top;spacingLeft=4;spacingRight=4;overflow=hidden;rotatable=0;points=[[0,0.5],[1,0.5]];portConstraint=eastwest;" vertex="1" parent="5_1n4lwd3cMLtCb-UAz3-24">
          <mxGeometry y="26" width="210" height="26" as="geometry" />
        </mxCell>
        <mxCell id="5_1n4lwd3cMLtCb-UAz3-66" value="+ getPrice(): double" style="text;align=left;verticalAlign=top;spacingLeft=4;spacingRight=4;overflow=hidden;rotatable=0;points=[[0,0.5],[1,0.5]];portConstraint=eastwest;" vertex="1" parent="5_1n4lwd3cMLtCb-UAz3-24">
          <mxGeometry y="52" width="210" height="26" as="geometry" />
        </mxCell>
        <mxCell id="5_1n4lwd3cMLtCb-UAz3-32" style="edgeStyle=orthogonalEdgeStyle;rounded=0;orthogonalLoop=1;jettySize=auto;html=1;entryX=0.5;entryY=1;entryDx=0;entryDy=0;" edge="1" parent="WIyWlLk6GJQsqaUBKTNV-1" source="5_1n4lwd3cMLtCb-UAz3-26" target="5_1n4lwd3cMLtCb-UAz3-3">
          <mxGeometry relative="1" as="geometry">
            <Array as="points">
              <mxPoint x="-1065" y="300" />
              <mxPoint x="-1210" y="300" />
            </Array>
          </mxGeometry>
        </mxCell>
        <mxCell id="5_1n4lwd3cMLtCb-UAz3-26" value="RyeBread" style="swimlane;fontStyle=0;align=center;verticalAlign=top;childLayout=stackLayout;horizontal=1;startSize=26;horizontalStack=0;resizeParent=1;resizeLast=0;collapsible=1;marginBottom=0;rounded=0;shadow=0;strokeWidth=1;" vertex="1" parent="WIyWlLk6GJQsqaUBKTNV-1">
          <mxGeometry x="-1215" y="340" width="200" height="78" as="geometry">
            <mxRectangle x="340" y="380" width="170" height="26" as="alternateBounds" />
          </mxGeometry>
        </mxCell>
        <mxCell id="5_1n4lwd3cMLtCb-UAz3-27" value="+ RyeBread(size: int, price: double)" style="text;align=left;verticalAlign=top;spacingLeft=4;spacingRight=4;overflow=hidden;rotatable=0;points=[[0,0.5],[1,0.5]];portConstraint=eastwest;" vertex="1" parent="5_1n4lwd3cMLtCb-UAz3-26">
          <mxGeometry y="26" width="200" height="26" as="geometry" />
        </mxCell>
        <mxCell id="5_1n4lwd3cMLtCb-UAz3-65" value="+ getPrice(): double" style="text;align=left;verticalAlign=top;spacingLeft=4;spacingRight=4;overflow=hidden;rotatable=0;points=[[0,0.5],[1,0.5]];portConstraint=eastwest;" vertex="1" parent="5_1n4lwd3cMLtCb-UAz3-26">
          <mxGeometry y="52" width="200" height="26" as="geometry" />
        </mxCell>
        <mxCell id="5_1n4lwd3cMLtCb-UAz3-31" style="edgeStyle=orthogonalEdgeStyle;rounded=0;orthogonalLoop=1;jettySize=auto;html=1;entryX=0.5;entryY=1;entryDx=0;entryDy=0;" edge="1" parent="WIyWlLk6GJQsqaUBKTNV-1" source="5_1n4lwd3cMLtCb-UAz3-28" target="5_1n4lwd3cMLtCb-UAz3-3">
          <mxGeometry relative="1" as="geometry">
            <mxPoint x="-815" y="200" as="targetPoint" />
            <Array as="points">
              <mxPoint x="-915" y="280" />
              <mxPoint x="-1210" y="280" />
            </Array>
          </mxGeometry>
        </mxCell>
        <mxCell id="5_1n4lwd3cMLtCb-UAz3-28" value="Wrap" style="swimlane;fontStyle=0;align=center;verticalAlign=top;childLayout=stackLayout;horizontal=1;startSize=26;horizontalStack=0;resizeParent=1;resizeLast=0;collapsible=1;marginBottom=0;rounded=0;shadow=0;strokeWidth=1;" vertex="1" parent="WIyWlLk6GJQsqaUBKTNV-1">
          <mxGeometry x="-1005" y="340" width="170" height="78" as="geometry">
            <mxRectangle x="340" y="380" width="170" height="26" as="alternateBounds" />
          </mxGeometry>
        </mxCell>
        <mxCell id="5_1n4lwd3cMLtCb-UAz3-29" value="+ Wrap(size: int, price: double)" style="text;align=left;verticalAlign=top;spacingLeft=4;spacingRight=4;overflow=hidden;rotatable=0;points=[[0,0.5],[1,0.5]];portConstraint=eastwest;" vertex="1" parent="5_1n4lwd3cMLtCb-UAz3-28">
          <mxGeometry y="26" width="170" height="26" as="geometry" />
        </mxCell>
        <mxCell id="5_1n4lwd3cMLtCb-UAz3-64" value="+ getPrice(): double" style="text;align=left;verticalAlign=top;spacingLeft=4;spacingRight=4;overflow=hidden;rotatable=0;points=[[0,0.5],[1,0.5]];portConstraint=eastwest;" vertex="1" parent="5_1n4lwd3cMLtCb-UAz3-28">
          <mxGeometry y="52" width="170" height="26" as="geometry" />
        </mxCell>
        <mxCell id="5_1n4lwd3cMLtCb-UAz3-87" style="edgeStyle=orthogonalEdgeStyle;rounded=0;orthogonalLoop=1;jettySize=auto;html=1;exitX=0.5;exitY=0;exitDx=0;exitDy=0;" edge="1" parent="WIyWlLk6GJQsqaUBKTNV-1" source="5_1n4lwd3cMLtCb-UAz3-35" target="zkfFHV4jXpPFQw0GAbJ--13">
          <mxGeometry relative="1" as="geometry" />
        </mxCell>
        <mxCell id="5_1n4lwd3cMLtCb-UAz3-35" value="Meats" style="swimlane;fontStyle=0;align=center;verticalAlign=top;childLayout=stackLayout;horizontal=1;startSize=26;horizontalStack=0;resizeParent=1;resizeLast=0;collapsible=1;marginBottom=0;rounded=0;shadow=0;strokeWidth=1;" vertex="1" parent="WIyWlLk6GJQsqaUBKTNV-1">
          <mxGeometry x="-800" y="340" width="187" height="240" as="geometry">
            <mxRectangle x="340" y="380" width="170" height="26" as="alternateBounds" />
          </mxGeometry>
        </mxCell>
        <mxCell id="5_1n4lwd3cMLtCb-UAz3-36" value="-extra: bool" style="text;align=left;verticalAlign=top;spacingLeft=4;spacingRight=4;overflow=hidden;rotatable=0;points=[[0,0.5],[1,0.5]];portConstraint=eastwest;" vertex="1" parent="5_1n4lwd3cMLtCb-UAz3-35">
          <mxGeometry y="26" width="187" height="26" as="geometry" />
        </mxCell>
        <mxCell id="5_1n4lwd3cMLtCb-UAz3-45" value="-type: String" style="text;align=left;verticalAlign=top;spacingLeft=4;spacingRight=4;overflow=hidden;rotatable=0;points=[[0,0.5],[1,0.5]];portConstraint=eastwest;" vertex="1" parent="5_1n4lwd3cMLtCb-UAz3-35">
          <mxGeometry y="52" width="187" height="26" as="geometry" />
        </mxCell>
        <mxCell id="5_1n4lwd3cMLtCb-UAz3-37" value="" style="line;html=1;strokeWidth=1;align=left;verticalAlign=middle;spacingTop=-1;spacingLeft=3;spacingRight=3;rotatable=0;labelPosition=right;points=[];portConstraint=eastwest;" vertex="1" parent="5_1n4lwd3cMLtCb-UAz3-35">
          <mxGeometry y="78" width="187" height="8" as="geometry" />
        </mxCell>
        <mxCell id="5_1n4lwd3cMLtCb-UAz3-42" value="+ Meats(extra:bool, type:String)" style="text;align=left;verticalAlign=top;spacingLeft=4;spacingRight=4;overflow=hidden;rotatable=0;points=[[0,0.5],[1,0.5]];portConstraint=eastwest;" vertex="1" parent="5_1n4lwd3cMLtCb-UAz3-35">
          <mxGeometry y="86" width="187" height="24" as="geometry" />
        </mxCell>
        <mxCell id="5_1n4lwd3cMLtCb-UAz3-46" value="+ getExtra(): bool" style="text;align=left;verticalAlign=top;spacingLeft=4;spacingRight=4;overflow=hidden;rotatable=0;points=[[0,0.5],[1,0.5]];portConstraint=eastwest;" vertex="1" parent="5_1n4lwd3cMLtCb-UAz3-35">
          <mxGeometry y="110" width="187" height="26" as="geometry" />
        </mxCell>
        <mxCell id="5_1n4lwd3cMLtCb-UAz3-49" value="+ setExtra(bool): void" style="text;align=left;verticalAlign=top;spacingLeft=4;spacingRight=4;overflow=hidden;rotatable=0;points=[[0,0.5],[1,0.5]];portConstraint=eastwest;" vertex="1" parent="5_1n4lwd3cMLtCb-UAz3-35">
          <mxGeometry y="136" width="187" height="26" as="geometry" />
        </mxCell>
        <mxCell id="5_1n4lwd3cMLtCb-UAz3-51" value="+ setType(String): void" style="text;align=left;verticalAlign=top;spacingLeft=4;spacingRight=4;overflow=hidden;rotatable=0;points=[[0,0.5],[1,0.5]];portConstraint=eastwest;" vertex="1" parent="5_1n4lwd3cMLtCb-UAz3-35">
          <mxGeometry y="162" width="187" height="26" as="geometry" />
        </mxCell>
        <mxCell id="5_1n4lwd3cMLtCb-UAz3-50" value="+ getType(): String" style="text;align=left;verticalAlign=top;spacingLeft=4;spacingRight=4;overflow=hidden;rotatable=0;points=[[0,0.5],[1,0.5]];portConstraint=eastwest;" vertex="1" parent="5_1n4lwd3cMLtCb-UAz3-35">
          <mxGeometry y="188" width="187" height="26" as="geometry" />
        </mxCell>
        <mxCell id="5_1n4lwd3cMLtCb-UAz3-62" value="+ getPrice(): double" style="text;align=left;verticalAlign=top;spacingLeft=4;spacingRight=4;overflow=hidden;rotatable=0;points=[[0,0.5],[1,0.5]];portConstraint=eastwest;" vertex="1" parent="5_1n4lwd3cMLtCb-UAz3-35">
          <mxGeometry y="214" width="187" height="26" as="geometry" />
        </mxCell>
        <mxCell id="5_1n4lwd3cMLtCb-UAz3-88" style="edgeStyle=orthogonalEdgeStyle;rounded=0;orthogonalLoop=1;jettySize=auto;html=1;exitX=0.5;exitY=0;exitDx=0;exitDy=0;" edge="1" parent="WIyWlLk6GJQsqaUBKTNV-1" source="5_1n4lwd3cMLtCb-UAz3-52" target="zkfFHV4jXpPFQw0GAbJ--13">
          <mxGeometry relative="1" as="geometry" />
        </mxCell>
        <mxCell id="5_1n4lwd3cMLtCb-UAz3-52" value="Cheese" style="swimlane;fontStyle=0;align=center;verticalAlign=top;childLayout=stackLayout;horizontal=1;startSize=26;horizontalStack=0;resizeParent=1;resizeLast=0;collapsible=1;marginBottom=0;rounded=0;shadow=0;strokeWidth=1;" vertex="1" parent="WIyWlLk6GJQsqaUBKTNV-1">
          <mxGeometry x="-570" y="340" width="187" height="240" as="geometry">
            <mxRectangle x="340" y="380" width="170" height="26" as="alternateBounds" />
          </mxGeometry>
        </mxCell>
        <mxCell id="5_1n4lwd3cMLtCb-UAz3-53" value="-extra: bool" style="text;align=left;verticalAlign=top;spacingLeft=4;spacingRight=4;overflow=hidden;rotatable=0;points=[[0,0.5],[1,0.5]];portConstraint=eastwest;" vertex="1" parent="5_1n4lwd3cMLtCb-UAz3-52">
          <mxGeometry y="26" width="187" height="26" as="geometry" />
        </mxCell>
        <mxCell id="5_1n4lwd3cMLtCb-UAz3-54" value="-type: String" style="text;align=left;verticalAlign=top;spacingLeft=4;spacingRight=4;overflow=hidden;rotatable=0;points=[[0,0.5],[1,0.5]];portConstraint=eastwest;" vertex="1" parent="5_1n4lwd3cMLtCb-UAz3-52">
          <mxGeometry y="52" width="187" height="26" as="geometry" />
        </mxCell>
        <mxCell id="5_1n4lwd3cMLtCb-UAz3-55" value="" style="line;html=1;strokeWidth=1;align=left;verticalAlign=middle;spacingTop=-1;spacingLeft=3;spacingRight=3;rotatable=0;labelPosition=right;points=[];portConstraint=eastwest;" vertex="1" parent="5_1n4lwd3cMLtCb-UAz3-52">
          <mxGeometry y="78" width="187" height="8" as="geometry" />
        </mxCell>
        <mxCell id="5_1n4lwd3cMLtCb-UAz3-56" value="+ Cheese(extra:bool, type:String)" style="text;align=left;verticalAlign=top;spacingLeft=4;spacingRight=4;overflow=hidden;rotatable=0;points=[[0,0.5],[1,0.5]];portConstraint=eastwest;" vertex="1" parent="5_1n4lwd3cMLtCb-UAz3-52">
          <mxGeometry y="86" width="187" height="24" as="geometry" />
        </mxCell>
        <mxCell id="5_1n4lwd3cMLtCb-UAz3-57" value="+ getExtra(): bool" style="text;align=left;verticalAlign=top;spacingLeft=4;spacingRight=4;overflow=hidden;rotatable=0;points=[[0,0.5],[1,0.5]];portConstraint=eastwest;" vertex="1" parent="5_1n4lwd3cMLtCb-UAz3-52">
          <mxGeometry y="110" width="187" height="26" as="geometry" />
        </mxCell>
        <mxCell id="5_1n4lwd3cMLtCb-UAz3-58" value="+ setExtra(bool): void" style="text;align=left;verticalAlign=top;spacingLeft=4;spacingRight=4;overflow=hidden;rotatable=0;points=[[0,0.5],[1,0.5]];portConstraint=eastwest;" vertex="1" parent="5_1n4lwd3cMLtCb-UAz3-52">
          <mxGeometry y="136" width="187" height="26" as="geometry" />
        </mxCell>
        <mxCell id="5_1n4lwd3cMLtCb-UAz3-59" value="+ setType(String): void" style="text;align=left;verticalAlign=top;spacingLeft=4;spacingRight=4;overflow=hidden;rotatable=0;points=[[0,0.5],[1,0.5]];portConstraint=eastwest;" vertex="1" parent="5_1n4lwd3cMLtCb-UAz3-52">
          <mxGeometry y="162" width="187" height="26" as="geometry" />
        </mxCell>
        <mxCell id="5_1n4lwd3cMLtCb-UAz3-60" value="+ getType(): String" style="text;align=left;verticalAlign=top;spacingLeft=4;spacingRight=4;overflow=hidden;rotatable=0;points=[[0,0.5],[1,0.5]];portConstraint=eastwest;" vertex="1" parent="5_1n4lwd3cMLtCb-UAz3-52">
          <mxGeometry y="188" width="187" height="26" as="geometry" />
        </mxCell>
        <mxCell id="5_1n4lwd3cMLtCb-UAz3-61" value="+ getPrice(): double" style="text;align=left;verticalAlign=top;spacingLeft=4;spacingRight=4;overflow=hidden;rotatable=0;points=[[0,0.5],[1,0.5]];portConstraint=eastwest;" vertex="1" parent="5_1n4lwd3cMLtCb-UAz3-52">
          <mxGeometry y="214" width="187" height="26" as="geometry" />
        </mxCell>
        <mxCell id="5_1n4lwd3cMLtCb-UAz3-89" style="edgeStyle=orthogonalEdgeStyle;rounded=0;orthogonalLoop=1;jettySize=auto;html=1;exitX=0.5;exitY=0;exitDx=0;exitDy=0;" edge="1" parent="WIyWlLk6GJQsqaUBKTNV-1" source="5_1n4lwd3cMLtCb-UAz3-69" target="zkfFHV4jXpPFQw0GAbJ--13">
          <mxGeometry relative="1" as="geometry" />
        </mxCell>
        <mxCell id="5_1n4lwd3cMLtCb-UAz3-69" value="Regular" style="swimlane;fontStyle=0;align=center;verticalAlign=top;childLayout=stackLayout;horizontal=1;startSize=26;horizontalStack=0;resizeParent=1;resizeLast=0;collapsible=1;marginBottom=0;rounded=0;shadow=0;strokeWidth=1;" vertex="1" parent="WIyWlLk6GJQsqaUBKTNV-1">
          <mxGeometry x="-350" y="340" width="137" height="170" as="geometry">
            <mxRectangle x="340" y="380" width="170" height="26" as="alternateBounds" />
          </mxGeometry>
        </mxCell>
        <mxCell id="5_1n4lwd3cMLtCb-UAz3-71" value="-type: String" style="text;align=left;verticalAlign=top;spacingLeft=4;spacingRight=4;overflow=hidden;rotatable=0;points=[[0,0.5],[1,0.5]];portConstraint=eastwest;" vertex="1" parent="5_1n4lwd3cMLtCb-UAz3-69">
          <mxGeometry y="26" width="137" height="26" as="geometry" />
        </mxCell>
        <mxCell id="5_1n4lwd3cMLtCb-UAz3-72" value="" style="line;html=1;strokeWidth=1;align=left;verticalAlign=middle;spacingTop=-1;spacingLeft=3;spacingRight=3;rotatable=0;labelPosition=right;points=[];portConstraint=eastwest;" vertex="1" parent="5_1n4lwd3cMLtCb-UAz3-69">
          <mxGeometry y="52" width="137" height="8" as="geometry" />
        </mxCell>
        <mxCell id="5_1n4lwd3cMLtCb-UAz3-73" value="+ Regular(type:String)" style="text;align=left;verticalAlign=top;spacingLeft=4;spacingRight=4;overflow=hidden;rotatable=0;points=[[0,0.5],[1,0.5]];portConstraint=eastwest;" vertex="1" parent="5_1n4lwd3cMLtCb-UAz3-69">
          <mxGeometry y="60" width="137" height="24" as="geometry" />
        </mxCell>
        <mxCell id="5_1n4lwd3cMLtCb-UAz3-76" value="+ setType(String): void" style="text;align=left;verticalAlign=top;spacingLeft=4;spacingRight=4;overflow=hidden;rotatable=0;points=[[0,0.5],[1,0.5]];portConstraint=eastwest;" vertex="1" parent="5_1n4lwd3cMLtCb-UAz3-69">
          <mxGeometry y="84" width="137" height="26" as="geometry" />
        </mxCell>
        <mxCell id="5_1n4lwd3cMLtCb-UAz3-77" value="+ getType(): String" style="text;align=left;verticalAlign=top;spacingLeft=4;spacingRight=4;overflow=hidden;rotatable=0;points=[[0,0.5],[1,0.5]];portConstraint=eastwest;" vertex="1" parent="5_1n4lwd3cMLtCb-UAz3-69">
          <mxGeometry y="110" width="137" height="26" as="geometry" />
        </mxCell>
        <mxCell id="5_1n4lwd3cMLtCb-UAz3-78" value="+ getPrice(): double" style="text;align=left;verticalAlign=top;spacingLeft=4;spacingRight=4;overflow=hidden;rotatable=0;points=[[0,0.5],[1,0.5]];portConstraint=eastwest;" vertex="1" parent="5_1n4lwd3cMLtCb-UAz3-69">
          <mxGeometry y="136" width="137" height="26" as="geometry" />
        </mxCell>
        <mxCell id="5_1n4lwd3cMLtCb-UAz3-90" style="edgeStyle=orthogonalEdgeStyle;rounded=0;orthogonalLoop=1;jettySize=auto;html=1;exitX=0.5;exitY=0;exitDx=0;exitDy=0;" edge="1" parent="WIyWlLk6GJQsqaUBKTNV-1" source="5_1n4lwd3cMLtCb-UAz3-79" target="zkfFHV4jXpPFQw0GAbJ--13">
          <mxGeometry relative="1" as="geometry" />
        </mxCell>
        <mxCell id="5_1n4lwd3cMLtCb-UAz3-79" value="Sauce" style="swimlane;fontStyle=0;align=center;verticalAlign=top;childLayout=stackLayout;horizontal=1;startSize=26;horizontalStack=0;resizeParent=1;resizeLast=0;collapsible=1;marginBottom=0;rounded=0;shadow=0;strokeWidth=1;" vertex="1" parent="WIyWlLk6GJQsqaUBKTNV-1">
          <mxGeometry x="-177" y="340" width="137" height="162" as="geometry">
            <mxRectangle x="340" y="380" width="170" height="26" as="alternateBounds" />
          </mxGeometry>
        </mxCell>
        <mxCell id="5_1n4lwd3cMLtCb-UAz3-80" value="-type: String" style="text;align=left;verticalAlign=top;spacingLeft=4;spacingRight=4;overflow=hidden;rotatable=0;points=[[0,0.5],[1,0.5]];portConstraint=eastwest;" vertex="1" parent="5_1n4lwd3cMLtCb-UAz3-79">
          <mxGeometry y="26" width="137" height="26" as="geometry" />
        </mxCell>
        <mxCell id="5_1n4lwd3cMLtCb-UAz3-81" value="" style="line;html=1;strokeWidth=1;align=left;verticalAlign=middle;spacingTop=-1;spacingLeft=3;spacingRight=3;rotatable=0;labelPosition=right;points=[];portConstraint=eastwest;" vertex="1" parent="5_1n4lwd3cMLtCb-UAz3-79">
          <mxGeometry y="52" width="137" height="8" as="geometry" />
        </mxCell>
        <mxCell id="5_1n4lwd3cMLtCb-UAz3-82" value="+ Sauce(type:String)" style="text;align=left;verticalAlign=top;spacingLeft=4;spacingRight=4;overflow=hidden;rotatable=0;points=[[0,0.5],[1,0.5]];portConstraint=eastwest;" vertex="1" parent="5_1n4lwd3cMLtCb-UAz3-79">
          <mxGeometry y="60" width="137" height="24" as="geometry" />
        </mxCell>
        <mxCell id="5_1n4lwd3cMLtCb-UAz3-83" value="+ setType(String): void" style="text;align=left;verticalAlign=top;spacingLeft=4;spacingRight=4;overflow=hidden;rotatable=0;points=[[0,0.5],[1,0.5]];portConstraint=eastwest;" vertex="1" parent="5_1n4lwd3cMLtCb-UAz3-79">
          <mxGeometry y="84" width="137" height="26" as="geometry" />
        </mxCell>
        <mxCell id="5_1n4lwd3cMLtCb-UAz3-84" value="+ getType(): String" style="text;align=left;verticalAlign=top;spacingLeft=4;spacingRight=4;overflow=hidden;rotatable=0;points=[[0,0.5],[1,0.5]];portConstraint=eastwest;" vertex="1" parent="5_1n4lwd3cMLtCb-UAz3-79">
          <mxGeometry y="110" width="137" height="26" as="geometry" />
        </mxCell>
        <mxCell id="5_1n4lwd3cMLtCb-UAz3-85" value="+ getPrice(): double" style="text;align=left;verticalAlign=top;spacingLeft=4;spacingRight=4;overflow=hidden;rotatable=0;points=[[0,0.5],[1,0.5]];portConstraint=eastwest;" vertex="1" parent="5_1n4lwd3cMLtCb-UAz3-79">
          <mxGeometry y="136" width="137" height="26" as="geometry" />
        </mxCell>
        <mxCell id="5_1n4lwd3cMLtCb-UAz3-133" style="edgeStyle=orthogonalEdgeStyle;rounded=0;orthogonalLoop=1;jettySize=auto;html=1;exitX=0.5;exitY=0;exitDx=0;exitDy=0;" edge="1" parent="WIyWlLk6GJQsqaUBKTNV-1" source="5_1n4lwd3cMLtCb-UAz3-107" target="5_1n4lwd3cMLtCb-UAz3-0">
          <mxGeometry relative="1" as="geometry">
            <Array as="points">
              <mxPoint x="-960" y="20" />
              <mxPoint x="-280" y="20" />
            </Array>
          </mxGeometry>
        </mxCell>
        <mxCell id="5_1n4lwd3cMLtCb-UAz3-107" value="Chips" style="swimlane;fontStyle=0;align=center;verticalAlign=top;childLayout=stackLayout;horizontal=1;startSize=26;horizontalStack=0;resizeParent=1;resizeLast=0;collapsible=1;marginBottom=0;rounded=0;shadow=0;strokeWidth=1;" vertex="1" parent="WIyWlLk6GJQsqaUBKTNV-1">
          <mxGeometry x="-1040" y="80" width="160" height="164" as="geometry">
            <mxRectangle x="340" y="380" width="170" height="26" as="alternateBounds" />
          </mxGeometry>
        </mxCell>
        <mxCell id="5_1n4lwd3cMLtCb-UAz3-108" value="- size: int" style="text;align=left;verticalAlign=top;spacingLeft=4;spacingRight=4;overflow=hidden;rotatable=0;points=[[0,0.5],[1,0.5]];portConstraint=eastwest;" vertex="1" parent="5_1n4lwd3cMLtCb-UAz3-107">
          <mxGeometry y="26" width="160" height="26" as="geometry" />
        </mxCell>
        <mxCell id="5_1n4lwd3cMLtCb-UAz3-109" value="" style="line;html=1;strokeWidth=1;align=left;verticalAlign=middle;spacingTop=-1;spacingLeft=3;spacingRight=3;rotatable=0;labelPosition=right;points=[];portConstraint=eastwest;" vertex="1" parent="5_1n4lwd3cMLtCb-UAz3-107">
          <mxGeometry y="52" width="160" height="8" as="geometry" />
        </mxCell>
        <mxCell id="5_1n4lwd3cMLtCb-UAz3-110" value="+ Chips(size:int)" style="text;align=left;verticalAlign=top;spacingLeft=4;spacingRight=4;overflow=hidden;rotatable=0;points=[[0,0.5],[1,0.5]];portConstraint=eastwest;" vertex="1" parent="5_1n4lwd3cMLtCb-UAz3-107">
          <mxGeometry y="60" width="160" height="26" as="geometry" />
        </mxCell>
        <mxCell id="5_1n4lwd3cMLtCb-UAz3-111" value="+ getSize(): int" style="text;align=left;verticalAlign=top;spacingLeft=4;spacingRight=4;overflow=hidden;rotatable=0;points=[[0,0.5],[1,0.5]];portConstraint=eastwest;" vertex="1" parent="5_1n4lwd3cMLtCb-UAz3-107">
          <mxGeometry y="86" width="160" height="26" as="geometry" />
        </mxCell>
        <mxCell id="5_1n4lwd3cMLtCb-UAz3-112" value="+ setSize(size:int): void" style="text;align=left;verticalAlign=top;spacingLeft=4;spacingRight=4;overflow=hidden;rotatable=0;points=[[0,0.5],[1,0.5]];portConstraint=eastwest;" vertex="1" parent="5_1n4lwd3cMLtCb-UAz3-107">
          <mxGeometry y="112" width="160" height="26" as="geometry" />
        </mxCell>
        <mxCell id="5_1n4lwd3cMLtCb-UAz3-114" value="+ getPrice(): double" style="text;align=left;verticalAlign=top;spacingLeft=4;spacingRight=4;overflow=hidden;rotatable=0;points=[[0,0.5],[1,0.5]];portConstraint=eastwest;" vertex="1" parent="5_1n4lwd3cMLtCb-UAz3-107">
          <mxGeometry y="138" width="160" height="26" as="geometry" />
        </mxCell>
        <mxCell id="5_1n4lwd3cMLtCb-UAz3-141" style="edgeStyle=orthogonalEdgeStyle;rounded=0;orthogonalLoop=1;jettySize=auto;html=1;exitX=0.5;exitY=0;exitDx=0;exitDy=0;" edge="1" parent="WIyWlLk6GJQsqaUBKTNV-1" source="5_1n4lwd3cMLtCb-UAz3-142" target="5_1n4lwd3cMLtCb-UAz3-177">
          <mxGeometry relative="1" as="geometry">
            <Array as="points">
              <mxPoint x="4685" y="-1690" />
              <mxPoint x="4355" y="-1690" />
            </Array>
          </mxGeometry>
        </mxCell>
        <mxCell id="5_1n4lwd3cMLtCb-UAz3-142" value="Sandwich" style="swimlane;fontStyle=2;align=center;verticalAlign=top;childLayout=stackLayout;horizontal=1;startSize=26;horizontalStack=0;resizeParent=1;resizeLast=0;collapsible=1;marginBottom=0;rounded=0;shadow=0;strokeWidth=1;" vertex="1" parent="WIyWlLk6GJQsqaUBKTNV-1">
          <mxGeometry x="4530" y="-1620" width="310" height="320" as="geometry">
            <mxRectangle x="220" y="120" width="160" height="26" as="alternateBounds" />
          </mxGeometry>
        </mxCell>
        <mxCell id="5_1n4lwd3cMLtCb-UAz3-143" value="-bread: Bread" style="text;align=left;verticalAlign=top;spacingLeft=4;spacingRight=4;overflow=hidden;rotatable=0;points=[[0,0.5],[1,0.5]];portConstraint=eastwest;" vertex="1" parent="5_1n4lwd3cMLtCb-UAz3-142">
          <mxGeometry y="26" width="310" height="26" as="geometry" />
        </mxCell>
        <mxCell id="5_1n4lwd3cMLtCb-UAz3-144" value="-toppings:ArrayList&lt;Topping&gt;" style="text;align=left;verticalAlign=top;spacingLeft=4;spacingRight=4;overflow=hidden;rotatable=0;points=[[0,0.5],[1,0.5]];portConstraint=eastwest;rounded=0;shadow=0;html=0;" vertex="1" parent="5_1n4lwd3cMLtCb-UAz3-142">
          <mxGeometry y="52" width="310" height="26" as="geometry" />
        </mxCell>
        <mxCell id="5_1n4lwd3cMLtCb-UAz3-145" value="-toasted: bool" style="text;align=left;verticalAlign=top;spacingLeft=4;spacingRight=4;overflow=hidden;rotatable=0;points=[[0,0.5],[1,0.5]];portConstraint=eastwest;" vertex="1" parent="5_1n4lwd3cMLtCb-UAz3-142">
          <mxGeometry y="78" width="310" height="26" as="geometry" />
        </mxCell>
        <mxCell id="5_1n4lwd3cMLtCb-UAz3-146" value="" style="line;html=1;strokeWidth=1;align=left;verticalAlign=middle;spacingTop=-1;spacingLeft=3;spacingRight=3;rotatable=0;labelPosition=right;points=[];portConstraint=eastwest;" vertex="1" parent="5_1n4lwd3cMLtCb-UAz3-142">
          <mxGeometry y="104" width="310" height="8" as="geometry" />
        </mxCell>
        <mxCell id="5_1n4lwd3cMLtCb-UAz3-147" value="+Sandwich(bread:Bread, toppings ArrayList&lt;Topping&gt;)" style="text;align=left;verticalAlign=top;spacingLeft=4;spacingRight=4;overflow=hidden;rotatable=0;points=[[0,0.5],[1,0.5]];portConstraint=eastwest;rounded=0;shadow=0;html=0;" vertex="1" parent="5_1n4lwd3cMLtCb-UAz3-142">
          <mxGeometry y="112" width="310" height="26" as="geometry" />
        </mxCell>
        <mxCell id="5_1n4lwd3cMLtCb-UAz3-148" value="+ getBread(): Bread" style="text;align=left;verticalAlign=top;spacingLeft=4;spacingRight=4;overflow=hidden;rotatable=0;points=[[0,0.5],[1,0.5]];portConstraint=eastwest;" vertex="1" parent="5_1n4lwd3cMLtCb-UAz3-142">
          <mxGeometry y="138" width="310" height="26" as="geometry" />
        </mxCell>
        <mxCell id="5_1n4lwd3cMLtCb-UAz3-149" value="+ setBread(bread:Bread): void" style="text;align=left;verticalAlign=top;spacingLeft=4;spacingRight=4;overflow=hidden;rotatable=0;points=[[0,0.5],[1,0.5]];portConstraint=eastwest;" vertex="1" parent="5_1n4lwd3cMLtCb-UAz3-142">
          <mxGeometry y="164" width="310" height="26" as="geometry" />
        </mxCell>
        <mxCell id="5_1n4lwd3cMLtCb-UAz3-150" value="+ getTopping(): ArrayList&lt;Topping&gt;" style="text;align=left;verticalAlign=top;spacingLeft=4;spacingRight=4;overflow=hidden;rotatable=0;points=[[0,0.5],[1,0.5]];portConstraint=eastwest;" vertex="1" parent="5_1n4lwd3cMLtCb-UAz3-142">
          <mxGeometry y="190" width="310" height="26" as="geometry" />
        </mxCell>
        <mxCell id="5_1n4lwd3cMLtCb-UAz3-151" value="+ setTopping(toppings:ArrayList&lt;Topping&gt;): void" style="text;align=left;verticalAlign=top;spacingLeft=4;spacingRight=4;overflow=hidden;rotatable=0;points=[[0,0.5],[1,0.5]];portConstraint=eastwest;" vertex="1" parent="5_1n4lwd3cMLtCb-UAz3-142">
          <mxGeometry y="216" width="310" height="26" as="geometry" />
        </mxCell>
        <mxCell id="5_1n4lwd3cMLtCb-UAz3-152" value="+ getToasted(): bool" style="text;align=left;verticalAlign=top;spacingLeft=4;spacingRight=4;overflow=hidden;rotatable=0;points=[[0,0.5],[1,0.5]];portConstraint=eastwest;" vertex="1" parent="5_1n4lwd3cMLtCb-UAz3-142">
          <mxGeometry y="242" width="310" height="26" as="geometry" />
        </mxCell>
        <mxCell id="5_1n4lwd3cMLtCb-UAz3-153" value="+ setToasted(bool): void" style="text;align=left;verticalAlign=top;spacingLeft=4;spacingRight=4;overflow=hidden;rotatable=0;points=[[0,0.5],[1,0.5]];portConstraint=eastwest;" vertex="1" parent="5_1n4lwd3cMLtCb-UAz3-142">
          <mxGeometry y="268" width="310" height="26" as="geometry" />
        </mxCell>
        <mxCell id="5_1n4lwd3cMLtCb-UAz3-154" value="+ getPrice(): double" style="text;align=left;verticalAlign=top;spacingLeft=4;spacingRight=4;overflow=hidden;rotatable=0;points=[[0,0.5],[1,0.5]];portConstraint=eastwest;" vertex="1" parent="5_1n4lwd3cMLtCb-UAz3-142">
          <mxGeometry y="294" width="310" height="26" as="geometry" />
        </mxCell>
        <mxCell id="5_1n4lwd3cMLtCb-UAz3-155" style="edgeStyle=orthogonalEdgeStyle;rounded=0;orthogonalLoop=1;jettySize=auto;html=1;exitX=0.5;exitY=0;exitDx=0;exitDy=0;" edge="1" parent="WIyWlLk6GJQsqaUBKTNV-1" source="5_1n4lwd3cMLtCb-UAz3-156" target="5_1n4lwd3cMLtCb-UAz3-177">
          <mxGeometry relative="1" as="geometry">
            <Array as="points">
              <mxPoint x="5020" y="-1620" />
              <mxPoint x="5020" y="-1690" />
              <mxPoint x="4355" y="-1690" />
            </Array>
          </mxGeometry>
        </mxCell>
        <mxCell id="5_1n4lwd3cMLtCb-UAz3-156" value="Order" style="swimlane;fontStyle=0;align=center;verticalAlign=top;childLayout=stackLayout;horizontal=1;startSize=26;horizontalStack=0;resizeParent=1;resizeLast=0;collapsible=1;marginBottom=0;rounded=0;shadow=0;strokeWidth=1;" vertex="1" parent="WIyWlLk6GJQsqaUBKTNV-1">
          <mxGeometry x="4870" y="-1620" width="295" height="332" as="geometry">
            <mxRectangle x="130" y="380" width="160" height="26" as="alternateBounds" />
          </mxGeometry>
        </mxCell>
        <mxCell id="5_1n4lwd3cMLtCb-UAz3-157" value="-sandwich: ArrayList&lt;Sandwich&gt;" style="text;align=left;verticalAlign=top;spacingLeft=4;spacingRight=4;overflow=hidden;rotatable=0;points=[[0,0.5],[1,0.5]];portConstraint=eastwest;" vertex="1" parent="5_1n4lwd3cMLtCb-UAz3-156">
          <mxGeometry y="26" width="295" height="26" as="geometry" />
        </mxCell>
        <mxCell id="5_1n4lwd3cMLtCb-UAz3-158" value="-drink:ArrayList&lt;Drink&gt;" style="text;align=left;verticalAlign=top;spacingLeft=4;spacingRight=4;overflow=hidden;rotatable=0;points=[[0,0.5],[1,0.5]];portConstraint=eastwest;rounded=0;shadow=0;html=0;" vertex="1" parent="5_1n4lwd3cMLtCb-UAz3-156">
          <mxGeometry y="52" width="295" height="26" as="geometry" />
        </mxCell>
        <mxCell id="5_1n4lwd3cMLtCb-UAz3-159" value="-chips:ArrayList&lt;Chips&gt;" style="text;align=left;verticalAlign=top;spacingLeft=4;spacingRight=4;overflow=hidden;rotatable=0;points=[[0,0.5],[1,0.5]];portConstraint=eastwest;rounded=0;shadow=0;html=0;" vertex="1" parent="5_1n4lwd3cMLtCb-UAz3-156">
          <mxGeometry y="78" width="295" height="26" as="geometry" />
        </mxCell>
        <mxCell id="5_1n4lwd3cMLtCb-UAz3-160" value="" style="line;html=1;strokeWidth=1;align=left;verticalAlign=middle;spacingTop=-1;spacingLeft=3;spacingRight=3;rotatable=0;labelPosition=right;points=[];portConstraint=eastwest;" vertex="1" parent="5_1n4lwd3cMLtCb-UAz3-156">
          <mxGeometry y="104" width="295" height="8" as="geometry" />
        </mxCell>
        <mxCell id="5_1n4lwd3cMLtCb-UAz3-161" value="+ Order(sandwich: ArrayList&lt;Sandwich&gt;, &#xa;drink:ArrayList&lt;Drink&gt;, chip:ArrayList&lt;Chip&gt;)" style="text;align=left;verticalAlign=top;spacingLeft=4;spacingRight=4;overflow=hidden;rotatable=0;points=[[0,0.5],[1,0.5]];portConstraint=eastwest;rounded=0;shadow=0;html=0;" vertex="1" parent="5_1n4lwd3cMLtCb-UAz3-156">
          <mxGeometry y="112" width="295" height="38" as="geometry" />
        </mxCell>
        <mxCell id="5_1n4lwd3cMLtCb-UAz3-162" value="+ getSandwich(): ArrayList&lt;Sandwich&gt;" style="text;align=left;verticalAlign=top;spacingLeft=4;spacingRight=4;overflow=hidden;rotatable=0;points=[[0,0.5],[1,0.5]];portConstraint=eastwest;" vertex="1" parent="5_1n4lwd3cMLtCb-UAz3-156">
          <mxGeometry y="150" width="295" height="26" as="geometry" />
        </mxCell>
        <mxCell id="5_1n4lwd3cMLtCb-UAz3-163" value="+ setSandwich(sandwich:ArrayList&lt;Sandwich&gt;): void" style="text;align=left;verticalAlign=top;spacingLeft=4;spacingRight=4;overflow=hidden;rotatable=0;points=[[0,0.5],[1,0.5]];portConstraint=eastwest;" vertex="1" parent="5_1n4lwd3cMLtCb-UAz3-156">
          <mxGeometry y="176" width="295" height="26" as="geometry" />
        </mxCell>
        <mxCell id="5_1n4lwd3cMLtCb-UAz3-164" value="+ getDrink(): ArrayList&lt;Drink&gt;" style="text;align=left;verticalAlign=top;spacingLeft=4;spacingRight=4;overflow=hidden;rotatable=0;points=[[0,0.5],[1,0.5]];portConstraint=eastwest;" vertex="1" parent="5_1n4lwd3cMLtCb-UAz3-156">
          <mxGeometry y="202" width="295" height="26" as="geometry" />
        </mxCell>
        <mxCell id="5_1n4lwd3cMLtCb-UAz3-165" value="+ setDrink(drink:ArrayList&lt;Drink&gt;): void" style="text;align=left;verticalAlign=top;spacingLeft=4;spacingRight=4;overflow=hidden;rotatable=0;points=[[0,0.5],[1,0.5]];portConstraint=eastwest;" vertex="1" parent="5_1n4lwd3cMLtCb-UAz3-156">
          <mxGeometry y="228" width="295" height="26" as="geometry" />
        </mxCell>
        <mxCell id="5_1n4lwd3cMLtCb-UAz3-166" value="+ setChip(chip:ArrayList&lt;Chips&gt;): void" style="text;align=left;verticalAlign=top;spacingLeft=4;spacingRight=4;overflow=hidden;rotatable=0;points=[[0,0.5],[1,0.5]];portConstraint=eastwest;" vertex="1" parent="5_1n4lwd3cMLtCb-UAz3-156">
          <mxGeometry y="254" width="295" height="26" as="geometry" />
        </mxCell>
        <mxCell id="5_1n4lwd3cMLtCb-UAz3-167" value="+ getChip(): ArrayList&lt;Chip&gt;" style="text;align=left;verticalAlign=top;spacingLeft=4;spacingRight=4;overflow=hidden;rotatable=0;points=[[0,0.5],[1,0.5]];portConstraint=eastwest;" vertex="1" parent="5_1n4lwd3cMLtCb-UAz3-156">
          <mxGeometry y="280" width="295" height="26" as="geometry" />
        </mxCell>
        <mxCell id="5_1n4lwd3cMLtCb-UAz3-168" value="+ getPrice(): double" style="text;align=left;verticalAlign=top;spacingLeft=4;spacingRight=4;overflow=hidden;rotatable=0;points=[[0,0.5],[1,0.5]];portConstraint=eastwest;" vertex="1" parent="5_1n4lwd3cMLtCb-UAz3-156">
          <mxGeometry y="306" width="295" height="26" as="geometry" />
        </mxCell>
        <mxCell id="5_1n4lwd3cMLtCb-UAz3-169" style="edgeStyle=orthogonalEdgeStyle;rounded=0;orthogonalLoop=1;jettySize=auto;html=1;exitX=0.5;exitY=0;exitDx=0;exitDy=0;" edge="1" parent="WIyWlLk6GJQsqaUBKTNV-1" source="5_1n4lwd3cMLtCb-UAz3-170" target="5_1n4lwd3cMLtCb-UAz3-177">
          <mxGeometry relative="1" as="geometry">
            <Array as="points">
              <mxPoint x="4245" y="-1670" />
              <mxPoint x="4355" y="-1670" />
            </Array>
          </mxGeometry>
        </mxCell>
        <mxCell id="5_1n4lwd3cMLtCb-UAz3-170" value="Toppings" style="swimlane;fontStyle=0;align=center;verticalAlign=top;childLayout=stackLayout;horizontal=1;startSize=26;horizontalStack=0;resizeParent=1;resizeLast=0;collapsible=1;marginBottom=0;rounded=0;shadow=0;strokeWidth=1;" vertex="1" parent="WIyWlLk6GJQsqaUBKTNV-1">
          <mxGeometry x="4165" y="-1650" width="160" height="164" as="geometry">
            <mxRectangle x="340" y="380" width="170" height="26" as="alternateBounds" />
          </mxGeometry>
        </mxCell>
        <mxCell id="5_1n4lwd3cMLtCb-UAz3-171" value="-size: int" style="text;align=left;verticalAlign=top;spacingLeft=4;spacingRight=4;overflow=hidden;rotatable=0;points=[[0,0.5],[1,0.5]];portConstraint=eastwest;" vertex="1" parent="5_1n4lwd3cMLtCb-UAz3-170">
          <mxGeometry y="26" width="160" height="26" as="geometry" />
        </mxCell>
        <mxCell id="5_1n4lwd3cMLtCb-UAz3-172" value="" style="line;html=1;strokeWidth=1;align=left;verticalAlign=middle;spacingTop=-1;spacingLeft=3;spacingRight=3;rotatable=0;labelPosition=right;points=[];portConstraint=eastwest;" vertex="1" parent="5_1n4lwd3cMLtCb-UAz3-170">
          <mxGeometry y="52" width="160" height="8" as="geometry" />
        </mxCell>
        <mxCell id="5_1n4lwd3cMLtCb-UAz3-173" value="+ Toppings(size:int)" style="text;align=left;verticalAlign=top;spacingLeft=4;spacingRight=4;overflow=hidden;rotatable=0;points=[[0,0.5],[1,0.5]];portConstraint=eastwest;" vertex="1" parent="5_1n4lwd3cMLtCb-UAz3-170">
          <mxGeometry y="60" width="160" height="26" as="geometry" />
        </mxCell>
        <mxCell id="5_1n4lwd3cMLtCb-UAz3-174" value="+ getSize(): int" style="text;align=left;verticalAlign=top;spacingLeft=4;spacingRight=4;overflow=hidden;rotatable=0;points=[[0,0.5],[1,0.5]];portConstraint=eastwest;" vertex="1" parent="5_1n4lwd3cMLtCb-UAz3-170">
          <mxGeometry y="86" width="160" height="26" as="geometry" />
        </mxCell>
        <mxCell id="5_1n4lwd3cMLtCb-UAz3-175" value="+ setSize(size:int): void" style="text;align=left;verticalAlign=top;spacingLeft=4;spacingRight=4;overflow=hidden;rotatable=0;points=[[0,0.5],[1,0.5]];portConstraint=eastwest;" vertex="1" parent="5_1n4lwd3cMLtCb-UAz3-170">
          <mxGeometry y="112" width="160" height="26" as="geometry" />
        </mxCell>
        <mxCell id="5_1n4lwd3cMLtCb-UAz3-176" value="+ getPrice(): double" style="text;align=left;verticalAlign=top;spacingLeft=4;spacingRight=4;overflow=hidden;rotatable=0;points=[[0,0.5],[1,0.5]];portConstraint=eastwest;" vertex="1" parent="5_1n4lwd3cMLtCb-UAz3-170">
          <mxGeometry y="138" width="160" height="26" as="geometry" />
        </mxCell>
        <mxCell id="5_1n4lwd3cMLtCb-UAz3-177" value="IPrice" style="swimlane;fontStyle=0;align=center;verticalAlign=top;childLayout=stackLayout;horizontal=1;startSize=26;horizontalStack=0;resizeParent=1;resizeLast=0;collapsible=1;marginBottom=0;rounded=0;shadow=0;strokeWidth=1;" vertex="1" parent="WIyWlLk6GJQsqaUBKTNV-1">
          <mxGeometry x="4275" y="-1890" width="160" height="60" as="geometry">
            <mxRectangle x="340" y="380" width="170" height="26" as="alternateBounds" />
          </mxGeometry>
        </mxCell>
        <mxCell id="5_1n4lwd3cMLtCb-UAz3-178" value="+ getPrice() : double" style="text;align=left;verticalAlign=top;spacingLeft=4;spacingRight=4;overflow=hidden;rotatable=0;points=[[0,0.5],[1,0.5]];portConstraint=eastwest;" vertex="1" parent="5_1n4lwd3cMLtCb-UAz3-177">
          <mxGeometry y="26" width="160" height="26" as="geometry" />
        </mxCell>
        <mxCell id="5_1n4lwd3cMLtCb-UAz3-179" style="edgeStyle=orthogonalEdgeStyle;rounded=0;orthogonalLoop=1;jettySize=auto;html=1;exitX=0.5;exitY=0;exitDx=0;exitDy=0;" edge="1" parent="WIyWlLk6GJQsqaUBKTNV-1" source="5_1n4lwd3cMLtCb-UAz3-180" target="5_1n4lwd3cMLtCb-UAz3-177">
          <mxGeometry relative="1" as="geometry" />
        </mxCell>
        <mxCell id="5_1n4lwd3cMLtCb-UAz3-180" value="Bread" style="swimlane;fontStyle=0;align=center;verticalAlign=top;childLayout=stackLayout;horizontal=1;startSize=26;horizontalStack=0;resizeParent=1;resizeLast=0;collapsible=1;marginBottom=0;rounded=0;shadow=0;strokeWidth=1;" vertex="1" parent="WIyWlLk6GJQsqaUBKTNV-1">
          <mxGeometry x="3590" y="-1650" width="190" height="242" as="geometry">
            <mxRectangle x="340" y="380" width="170" height="26" as="alternateBounds" />
          </mxGeometry>
        </mxCell>
        <mxCell id="5_1n4lwd3cMLtCb-UAz3-181" value="- size: int" style="text;align=left;verticalAlign=top;spacingLeft=4;spacingRight=4;overflow=hidden;rotatable=0;points=[[0,0.5],[1,0.5]];portConstraint=eastwest;" vertex="1" parent="5_1n4lwd3cMLtCb-UAz3-180">
          <mxGeometry y="26" width="190" height="26" as="geometry" />
        </mxCell>
        <mxCell id="5_1n4lwd3cMLtCb-UAz3-259" value="-type: String" style="text;align=left;verticalAlign=top;spacingLeft=4;spacingRight=4;overflow=hidden;rotatable=0;points=[[0,0.5],[1,0.5]];portConstraint=eastwest;" vertex="1" parent="5_1n4lwd3cMLtCb-UAz3-180">
          <mxGeometry y="52" width="190" height="26" as="geometry" />
        </mxCell>
        <mxCell id="5_1n4lwd3cMLtCb-UAz3-182" value="" style="line;html=1;strokeWidth=1;align=left;verticalAlign=middle;spacingTop=-1;spacingLeft=3;spacingRight=3;rotatable=0;labelPosition=right;points=[];portConstraint=eastwest;" vertex="1" parent="5_1n4lwd3cMLtCb-UAz3-180">
          <mxGeometry y="78" width="190" height="8" as="geometry" />
        </mxCell>
        <mxCell id="5_1n4lwd3cMLtCb-UAz3-183" value="+ Bread(size: int, price: double)" style="text;align=left;verticalAlign=top;spacingLeft=4;spacingRight=4;overflow=hidden;rotatable=0;points=[[0,0.5],[1,0.5]];portConstraint=eastwest;" vertex="1" parent="5_1n4lwd3cMLtCb-UAz3-180">
          <mxGeometry y="86" width="190" height="26" as="geometry" />
        </mxCell>
        <mxCell id="5_1n4lwd3cMLtCb-UAz3-184" value="+ getSize(): int" style="text;align=left;verticalAlign=top;spacingLeft=4;spacingRight=4;overflow=hidden;rotatable=0;points=[[0,0.5],[1,0.5]];portConstraint=eastwest;" vertex="1" parent="5_1n4lwd3cMLtCb-UAz3-180">
          <mxGeometry y="112" width="190" height="26" as="geometry" />
        </mxCell>
        <mxCell id="5_1n4lwd3cMLtCb-UAz3-185" value="+ setSize(int): void" style="text;align=left;verticalAlign=top;spacingLeft=4;spacingRight=4;overflow=hidden;rotatable=0;points=[[0,0.5],[1,0.5]];portConstraint=eastwest;" vertex="1" parent="5_1n4lwd3cMLtCb-UAz3-180">
          <mxGeometry y="138" width="190" height="26" as="geometry" />
        </mxCell>
        <mxCell id="5_1n4lwd3cMLtCb-UAz3-257" value="+ setType(String): void" style="text;align=left;verticalAlign=top;spacingLeft=4;spacingRight=4;overflow=hidden;rotatable=0;points=[[0,0.5],[1,0.5]];portConstraint=eastwest;" vertex="1" parent="5_1n4lwd3cMLtCb-UAz3-180">
          <mxGeometry y="164" width="190" height="26" as="geometry" />
        </mxCell>
        <mxCell id="5_1n4lwd3cMLtCb-UAz3-258" value="+ getType(): String" style="text;align=left;verticalAlign=top;spacingLeft=4;spacingRight=4;overflow=hidden;rotatable=0;points=[[0,0.5],[1,0.5]];portConstraint=eastwest;" vertex="1" parent="5_1n4lwd3cMLtCb-UAz3-180">
          <mxGeometry y="190" width="190" height="26" as="geometry" />
        </mxCell>
        <mxCell id="5_1n4lwd3cMLtCb-UAz3-186" value="+ getPrice(): double" style="text;align=left;verticalAlign=top;spacingLeft=4;spacingRight=4;overflow=hidden;rotatable=0;points=[[0,0.5],[1,0.5]];portConstraint=eastwest;" vertex="1" parent="5_1n4lwd3cMLtCb-UAz3-180">
          <mxGeometry y="216" width="190" height="26" as="geometry" />
        </mxCell>
        <mxCell id="5_1n4lwd3cMLtCb-UAz3-187" style="edgeStyle=orthogonalEdgeStyle;rounded=0;orthogonalLoop=1;jettySize=auto;html=1;exitX=0.5;exitY=0;exitDx=0;exitDy=0;" edge="1" parent="WIyWlLk6GJQsqaUBKTNV-1" source="5_1n4lwd3cMLtCb-UAz3-188" target="5_1n4lwd3cMLtCb-UAz3-177">
          <mxGeometry relative="1" as="geometry">
            <Array as="points">
              <mxPoint x="4060" y="-1690" />
              <mxPoint x="4355" y="-1690" />
            </Array>
          </mxGeometry>
        </mxCell>
        <mxCell id="5_1n4lwd3cMLtCb-UAz3-188" value="Drink" style="swimlane;fontStyle=0;align=center;verticalAlign=top;childLayout=stackLayout;horizontal=1;startSize=26;horizontalStack=0;resizeParent=1;resizeLast=0;collapsible=1;marginBottom=0;rounded=0;shadow=0;strokeWidth=1;" vertex="1" parent="WIyWlLk6GJQsqaUBKTNV-1">
          <mxGeometry x="3980" y="-1650" width="160" height="164" as="geometry">
            <mxRectangle x="340" y="380" width="170" height="26" as="alternateBounds" />
          </mxGeometry>
        </mxCell>
        <mxCell id="5_1n4lwd3cMLtCb-UAz3-189" value="- size: int" style="text;align=left;verticalAlign=top;spacingLeft=4;spacingRight=4;overflow=hidden;rotatable=0;points=[[0,0.5],[1,0.5]];portConstraint=eastwest;" vertex="1" parent="5_1n4lwd3cMLtCb-UAz3-188">
          <mxGeometry y="26" width="160" height="26" as="geometry" />
        </mxCell>
        <mxCell id="5_1n4lwd3cMLtCb-UAz3-190" value="" style="line;html=1;strokeWidth=1;align=left;verticalAlign=middle;spacingTop=-1;spacingLeft=3;spacingRight=3;rotatable=0;labelPosition=right;points=[];portConstraint=eastwest;" vertex="1" parent="5_1n4lwd3cMLtCb-UAz3-188">
          <mxGeometry y="52" width="160" height="8" as="geometry" />
        </mxCell>
        <mxCell id="5_1n4lwd3cMLtCb-UAz3-191" value="+ Drink(size:int)" style="text;align=left;verticalAlign=top;spacingLeft=4;spacingRight=4;overflow=hidden;rotatable=0;points=[[0,0.5],[1,0.5]];portConstraint=eastwest;" vertex="1" parent="5_1n4lwd3cMLtCb-UAz3-188">
          <mxGeometry y="60" width="160" height="26" as="geometry" />
        </mxCell>
        <mxCell id="5_1n4lwd3cMLtCb-UAz3-192" value="+ getSize(): int" style="text;align=left;verticalAlign=top;spacingLeft=4;spacingRight=4;overflow=hidden;rotatable=0;points=[[0,0.5],[1,0.5]];portConstraint=eastwest;" vertex="1" parent="5_1n4lwd3cMLtCb-UAz3-188">
          <mxGeometry y="86" width="160" height="26" as="geometry" />
        </mxCell>
        <mxCell id="5_1n4lwd3cMLtCb-UAz3-193" value="+ setSize(size:int): void" style="text;align=left;verticalAlign=top;spacingLeft=4;spacingRight=4;overflow=hidden;rotatable=0;points=[[0,0.5],[1,0.5]];portConstraint=eastwest;" vertex="1" parent="5_1n4lwd3cMLtCb-UAz3-188">
          <mxGeometry y="112" width="160" height="26" as="geometry" />
        </mxCell>
        <mxCell id="5_1n4lwd3cMLtCb-UAz3-194" value="+ getPrice(): double" style="text;align=left;verticalAlign=top;spacingLeft=4;spacingRight=4;overflow=hidden;rotatable=0;points=[[0,0.5],[1,0.5]];portConstraint=eastwest;" vertex="1" parent="5_1n4lwd3cMLtCb-UAz3-188">
          <mxGeometry y="138" width="160" height="26" as="geometry" />
        </mxCell>
        <mxCell id="5_1n4lwd3cMLtCb-UAz3-211" style="edgeStyle=orthogonalEdgeStyle;rounded=0;orthogonalLoop=1;jettySize=auto;html=1;exitX=0.5;exitY=0;exitDx=0;exitDy=0;" edge="1" parent="WIyWlLk6GJQsqaUBKTNV-1" source="5_1n4lwd3cMLtCb-UAz3-212" target="5_1n4lwd3cMLtCb-UAz3-170">
          <mxGeometry relative="1" as="geometry" />
        </mxCell>
        <mxCell id="5_1n4lwd3cMLtCb-UAz3-212" value="PremiumTopping" style="swimlane;fontStyle=0;align=center;verticalAlign=top;childLayout=stackLayout;horizontal=1;startSize=26;horizontalStack=0;resizeParent=1;resizeLast=0;collapsible=1;marginBottom=0;rounded=0;shadow=0;strokeWidth=1;" vertex="1" parent="WIyWlLk6GJQsqaUBKTNV-1">
          <mxGeometry x="4030" y="-1390" width="240" height="240" as="geometry">
            <mxRectangle x="340" y="380" width="170" height="26" as="alternateBounds" />
          </mxGeometry>
        </mxCell>
        <mxCell id="5_1n4lwd3cMLtCb-UAz3-213" value="-extra: bool" style="text;align=left;verticalAlign=top;spacingLeft=4;spacingRight=4;overflow=hidden;rotatable=0;points=[[0,0.5],[1,0.5]];portConstraint=eastwest;" vertex="1" parent="5_1n4lwd3cMLtCb-UAz3-212">
          <mxGeometry y="26" width="240" height="26" as="geometry" />
        </mxCell>
        <mxCell id="5_1n4lwd3cMLtCb-UAz3-214" value="-type: String" style="text;align=left;verticalAlign=top;spacingLeft=4;spacingRight=4;overflow=hidden;rotatable=0;points=[[0,0.5],[1,0.5]];portConstraint=eastwest;" vertex="1" parent="5_1n4lwd3cMLtCb-UAz3-212">
          <mxGeometry y="52" width="240" height="26" as="geometry" />
        </mxCell>
        <mxCell id="5_1n4lwd3cMLtCb-UAz3-215" value="" style="line;html=1;strokeWidth=1;align=left;verticalAlign=middle;spacingTop=-1;spacingLeft=3;spacingRight=3;rotatable=0;labelPosition=right;points=[];portConstraint=eastwest;" vertex="1" parent="5_1n4lwd3cMLtCb-UAz3-212">
          <mxGeometry y="78" width="240" height="8" as="geometry" />
        </mxCell>
        <mxCell id="5_1n4lwd3cMLtCb-UAz3-216" value="+ PremiumTopping(extra:bool, type:String)" style="text;align=left;verticalAlign=top;spacingLeft=4;spacingRight=4;overflow=hidden;rotatable=0;points=[[0,0.5],[1,0.5]];portConstraint=eastwest;" vertex="1" parent="5_1n4lwd3cMLtCb-UAz3-212">
          <mxGeometry y="86" width="240" height="24" as="geometry" />
        </mxCell>
        <mxCell id="5_1n4lwd3cMLtCb-UAz3-217" value="+ getExtra(): bool" style="text;align=left;verticalAlign=top;spacingLeft=4;spacingRight=4;overflow=hidden;rotatable=0;points=[[0,0.5],[1,0.5]];portConstraint=eastwest;" vertex="1" parent="5_1n4lwd3cMLtCb-UAz3-212">
          <mxGeometry y="110" width="240" height="26" as="geometry" />
        </mxCell>
        <mxCell id="5_1n4lwd3cMLtCb-UAz3-218" value="+ setExtra(bool): void" style="text;align=left;verticalAlign=top;spacingLeft=4;spacingRight=4;overflow=hidden;rotatable=0;points=[[0,0.5],[1,0.5]];portConstraint=eastwest;" vertex="1" parent="5_1n4lwd3cMLtCb-UAz3-212">
          <mxGeometry y="136" width="240" height="26" as="geometry" />
        </mxCell>
        <mxCell id="5_1n4lwd3cMLtCb-UAz3-219" value="+ setType(String): void" style="text;align=left;verticalAlign=top;spacingLeft=4;spacingRight=4;overflow=hidden;rotatable=0;points=[[0,0.5],[1,0.5]];portConstraint=eastwest;" vertex="1" parent="5_1n4lwd3cMLtCb-UAz3-212">
          <mxGeometry y="162" width="240" height="26" as="geometry" />
        </mxCell>
        <mxCell id="5_1n4lwd3cMLtCb-UAz3-220" value="+ getType(): String" style="text;align=left;verticalAlign=top;spacingLeft=4;spacingRight=4;overflow=hidden;rotatable=0;points=[[0,0.5],[1,0.5]];portConstraint=eastwest;" vertex="1" parent="5_1n4lwd3cMLtCb-UAz3-212">
          <mxGeometry y="188" width="240" height="26" as="geometry" />
        </mxCell>
        <mxCell id="5_1n4lwd3cMLtCb-UAz3-221" value="+ getPrice(): double" style="text;align=left;verticalAlign=top;spacingLeft=4;spacingRight=4;overflow=hidden;rotatable=0;points=[[0,0.5],[1,0.5]];portConstraint=eastwest;" vertex="1" parent="5_1n4lwd3cMLtCb-UAz3-212">
          <mxGeometry y="214" width="240" height="26" as="geometry" />
        </mxCell>
        <mxCell id="5_1n4lwd3cMLtCb-UAz3-222" style="edgeStyle=orthogonalEdgeStyle;rounded=0;orthogonalLoop=1;jettySize=auto;html=1;exitX=0.5;exitY=0;exitDx=0;exitDy=0;" edge="1" parent="WIyWlLk6GJQsqaUBKTNV-1" source="5_1n4lwd3cMLtCb-UAz3-223" target="5_1n4lwd3cMLtCb-UAz3-170">
          <mxGeometry relative="1" as="geometry" />
        </mxCell>
        <mxCell id="5_1n4lwd3cMLtCb-UAz3-223" value="FreeTopping" style="swimlane;fontStyle=0;align=center;verticalAlign=top;childLayout=stackLayout;horizontal=1;startSize=26;horizontalStack=0;resizeParent=1;resizeLast=0;collapsible=1;marginBottom=0;rounded=0;shadow=0;strokeWidth=1;" vertex="1" parent="WIyWlLk6GJQsqaUBKTNV-1">
          <mxGeometry x="4290" y="-1390" width="220" height="170" as="geometry">
            <mxRectangle x="340" y="380" width="170" height="26" as="alternateBounds" />
          </mxGeometry>
        </mxCell>
        <mxCell id="5_1n4lwd3cMLtCb-UAz3-225" value="-type: String" style="text;align=left;verticalAlign=top;spacingLeft=4;spacingRight=4;overflow=hidden;rotatable=0;points=[[0,0.5],[1,0.5]];portConstraint=eastwest;" vertex="1" parent="5_1n4lwd3cMLtCb-UAz3-223">
          <mxGeometry y="26" width="220" height="26" as="geometry" />
        </mxCell>
        <mxCell id="5_1n4lwd3cMLtCb-UAz3-226" value="" style="line;html=1;strokeWidth=1;align=left;verticalAlign=middle;spacingTop=-1;spacingLeft=3;spacingRight=3;rotatable=0;labelPosition=right;points=[];portConstraint=eastwest;" vertex="1" parent="5_1n4lwd3cMLtCb-UAz3-223">
          <mxGeometry y="52" width="220" height="8" as="geometry" />
        </mxCell>
        <mxCell id="5_1n4lwd3cMLtCb-UAz3-227" value="+ FreeTopping(extra:bool, type:String)" style="text;align=left;verticalAlign=top;spacingLeft=4;spacingRight=4;overflow=hidden;rotatable=0;points=[[0,0.5],[1,0.5]];portConstraint=eastwest;" vertex="1" parent="5_1n4lwd3cMLtCb-UAz3-223">
          <mxGeometry y="60" width="220" height="24" as="geometry" />
        </mxCell>
        <mxCell id="5_1n4lwd3cMLtCb-UAz3-230" value="+ setType(String): void" style="text;align=left;verticalAlign=top;spacingLeft=4;spacingRight=4;overflow=hidden;rotatable=0;points=[[0,0.5],[1,0.5]];portConstraint=eastwest;" vertex="1" parent="5_1n4lwd3cMLtCb-UAz3-223">
          <mxGeometry y="84" width="220" height="26" as="geometry" />
        </mxCell>
        <mxCell id="5_1n4lwd3cMLtCb-UAz3-231" value="+ getType(): String" style="text;align=left;verticalAlign=top;spacingLeft=4;spacingRight=4;overflow=hidden;rotatable=0;points=[[0,0.5],[1,0.5]];portConstraint=eastwest;" vertex="1" parent="5_1n4lwd3cMLtCb-UAz3-223">
          <mxGeometry y="110" width="220" height="26" as="geometry" />
        </mxCell>
        <mxCell id="5_1n4lwd3cMLtCb-UAz3-232" value="+ getPrice(): double" style="text;align=left;verticalAlign=top;spacingLeft=4;spacingRight=4;overflow=hidden;rotatable=0;points=[[0,0.5],[1,0.5]];portConstraint=eastwest;" vertex="1" parent="5_1n4lwd3cMLtCb-UAz3-223">
          <mxGeometry y="136" width="220" height="26" as="geometry" />
        </mxCell>
        <mxCell id="5_1n4lwd3cMLtCb-UAz3-249" style="edgeStyle=orthogonalEdgeStyle;rounded=0;orthogonalLoop=1;jettySize=auto;html=1;exitX=0.5;exitY=0;exitDx=0;exitDy=0;" edge="1" parent="WIyWlLk6GJQsqaUBKTNV-1" source="5_1n4lwd3cMLtCb-UAz3-250" target="5_1n4lwd3cMLtCb-UAz3-177">
          <mxGeometry relative="1" as="geometry">
            <Array as="points">
              <mxPoint x="3880" y="-1710" />
              <mxPoint x="4355" y="-1710" />
            </Array>
          </mxGeometry>
        </mxCell>
        <mxCell id="5_1n4lwd3cMLtCb-UAz3-250" value="Chips" style="swimlane;fontStyle=0;align=center;verticalAlign=top;childLayout=stackLayout;horizontal=1;startSize=26;horizontalStack=0;resizeParent=1;resizeLast=0;collapsible=1;marginBottom=0;rounded=0;shadow=0;strokeWidth=1;" vertex="1" parent="WIyWlLk6GJQsqaUBKTNV-1">
          <mxGeometry x="3800" y="-1650" width="160" height="164" as="geometry">
            <mxRectangle x="340" y="380" width="170" height="26" as="alternateBounds" />
          </mxGeometry>
        </mxCell>
        <mxCell id="5_1n4lwd3cMLtCb-UAz3-251" value="- size: int" style="text;align=left;verticalAlign=top;spacingLeft=4;spacingRight=4;overflow=hidden;rotatable=0;points=[[0,0.5],[1,0.5]];portConstraint=eastwest;" vertex="1" parent="5_1n4lwd3cMLtCb-UAz3-250">
          <mxGeometry y="26" width="160" height="26" as="geometry" />
        </mxCell>
        <mxCell id="5_1n4lwd3cMLtCb-UAz3-252" value="" style="line;html=1;strokeWidth=1;align=left;verticalAlign=middle;spacingTop=-1;spacingLeft=3;spacingRight=3;rotatable=0;labelPosition=right;points=[];portConstraint=eastwest;" vertex="1" parent="5_1n4lwd3cMLtCb-UAz3-250">
          <mxGeometry y="52" width="160" height="8" as="geometry" />
        </mxCell>
        <mxCell id="5_1n4lwd3cMLtCb-UAz3-253" value="+ Chips(size:int)" style="text;align=left;verticalAlign=top;spacingLeft=4;spacingRight=4;overflow=hidden;rotatable=0;points=[[0,0.5],[1,0.5]];portConstraint=eastwest;" vertex="1" parent="5_1n4lwd3cMLtCb-UAz3-250">
          <mxGeometry y="60" width="160" height="26" as="geometry" />
        </mxCell>
        <mxCell id="5_1n4lwd3cMLtCb-UAz3-254" value="+ getSize(): int" style="text;align=left;verticalAlign=top;spacingLeft=4;spacingRight=4;overflow=hidden;rotatable=0;points=[[0,0.5],[1,0.5]];portConstraint=eastwest;" vertex="1" parent="5_1n4lwd3cMLtCb-UAz3-250">
          <mxGeometry y="86" width="160" height="26" as="geometry" />
        </mxCell>
        <mxCell id="5_1n4lwd3cMLtCb-UAz3-255" value="+ setSize(size:int): void" style="text;align=left;verticalAlign=top;spacingLeft=4;spacingRight=4;overflow=hidden;rotatable=0;points=[[0,0.5],[1,0.5]];portConstraint=eastwest;" vertex="1" parent="5_1n4lwd3cMLtCb-UAz3-250">
          <mxGeometry y="112" width="160" height="26" as="geometry" />
        </mxCell>
        <mxCell id="5_1n4lwd3cMLtCb-UAz3-256" value="+ getPrice(): double" style="text;align=left;verticalAlign=top;spacingLeft=4;spacingRight=4;overflow=hidden;rotatable=0;points=[[0,0.5],[1,0.5]];portConstraint=eastwest;" vertex="1" parent="5_1n4lwd3cMLtCb-UAz3-250">
          <mxGeometry y="138" width="160" height="26" as="geometry" />
        </mxCell>
        <mxCell id="5_1n4lwd3cMLtCb-UAz3-262" value="" style="rounded=0;whiteSpace=wrap;html=1;" vertex="1" parent="WIyWlLk6GJQsqaUBKTNV-1">
          <mxGeometry x="1070" y="-2070" width="1670" height="800" as="geometry" />
        </mxCell>
        <mxCell id="5_1n4lwd3cMLtCb-UAz3-263" style="edgeStyle=orthogonalEdgeStyle;rounded=0;orthogonalLoop=1;jettySize=auto;html=1;exitX=0.5;exitY=0;exitDx=0;exitDy=0;" edge="1" parent="WIyWlLk6GJQsqaUBKTNV-1" source="5_1n4lwd3cMLtCb-UAz3-264" target="5_1n4lwd3cMLtCb-UAz3-299">
          <mxGeometry relative="1" as="geometry">
            <Array as="points">
              <mxPoint x="2225" y="-1840" />
              <mxPoint x="1895" y="-1840" />
            </Array>
          </mxGeometry>
        </mxCell>
        <mxCell id="5_1n4lwd3cMLtCb-UAz3-264" value="Sandwich" style="swimlane;fontStyle=2;align=center;verticalAlign=top;childLayout=stackLayout;horizontal=1;startSize=26;horizontalStack=0;resizeParent=1;resizeLast=0;collapsible=1;marginBottom=0;rounded=0;shadow=0;strokeWidth=1;" vertex="1" parent="WIyWlLk6GJQsqaUBKTNV-1">
          <mxGeometry x="2070" y="-1770" width="310" height="320" as="geometry">
            <mxRectangle x="220" y="120" width="160" height="26" as="alternateBounds" />
          </mxGeometry>
        </mxCell>
        <mxCell id="5_1n4lwd3cMLtCb-UAz3-265" value="-bread: Bread" style="text;align=left;verticalAlign=top;spacingLeft=4;spacingRight=4;overflow=hidden;rotatable=0;points=[[0,0.5],[1,0.5]];portConstraint=eastwest;" vertex="1" parent="5_1n4lwd3cMLtCb-UAz3-264">
          <mxGeometry y="26" width="310" height="26" as="geometry" />
        </mxCell>
        <mxCell id="5_1n4lwd3cMLtCb-UAz3-266" value="-toppings:ArrayList&lt;Topping&gt;" style="text;align=left;verticalAlign=top;spacingLeft=4;spacingRight=4;overflow=hidden;rotatable=0;points=[[0,0.5],[1,0.5]];portConstraint=eastwest;rounded=0;shadow=0;html=0;" vertex="1" parent="5_1n4lwd3cMLtCb-UAz3-264">
          <mxGeometry y="52" width="310" height="26" as="geometry" />
        </mxCell>
        <mxCell id="5_1n4lwd3cMLtCb-UAz3-267" value="-toasted: bool" style="text;align=left;verticalAlign=top;spacingLeft=4;spacingRight=4;overflow=hidden;rotatable=0;points=[[0,0.5],[1,0.5]];portConstraint=eastwest;" vertex="1" parent="5_1n4lwd3cMLtCb-UAz3-264">
          <mxGeometry y="78" width="310" height="26" as="geometry" />
        </mxCell>
        <mxCell id="5_1n4lwd3cMLtCb-UAz3-268" value="" style="line;html=1;strokeWidth=1;align=left;verticalAlign=middle;spacingTop=-1;spacingLeft=3;spacingRight=3;rotatable=0;labelPosition=right;points=[];portConstraint=eastwest;" vertex="1" parent="5_1n4lwd3cMLtCb-UAz3-264">
          <mxGeometry y="104" width="310" height="8" as="geometry" />
        </mxCell>
        <mxCell id="5_1n4lwd3cMLtCb-UAz3-269" value="+Sandwich(bread:Bread, toppings ArrayList&lt;Topping&gt;)" style="text;align=left;verticalAlign=top;spacingLeft=4;spacingRight=4;overflow=hidden;rotatable=0;points=[[0,0.5],[1,0.5]];portConstraint=eastwest;rounded=0;shadow=0;html=0;" vertex="1" parent="5_1n4lwd3cMLtCb-UAz3-264">
          <mxGeometry y="112" width="310" height="26" as="geometry" />
        </mxCell>
        <mxCell id="5_1n4lwd3cMLtCb-UAz3-270" value="+ getBread(): Bread" style="text;align=left;verticalAlign=top;spacingLeft=4;spacingRight=4;overflow=hidden;rotatable=0;points=[[0,0.5],[1,0.5]];portConstraint=eastwest;" vertex="1" parent="5_1n4lwd3cMLtCb-UAz3-264">
          <mxGeometry y="138" width="310" height="26" as="geometry" />
        </mxCell>
        <mxCell id="5_1n4lwd3cMLtCb-UAz3-271" value="+ setBread(bread:Bread): void" style="text;align=left;verticalAlign=top;spacingLeft=4;spacingRight=4;overflow=hidden;rotatable=0;points=[[0,0.5],[1,0.5]];portConstraint=eastwest;" vertex="1" parent="5_1n4lwd3cMLtCb-UAz3-264">
          <mxGeometry y="164" width="310" height="26" as="geometry" />
        </mxCell>
        <mxCell id="5_1n4lwd3cMLtCb-UAz3-272" value="+ getTopping(): ArrayList&lt;Topping&gt;" style="text;align=left;verticalAlign=top;spacingLeft=4;spacingRight=4;overflow=hidden;rotatable=0;points=[[0,0.5],[1,0.5]];portConstraint=eastwest;" vertex="1" parent="5_1n4lwd3cMLtCb-UAz3-264">
          <mxGeometry y="190" width="310" height="26" as="geometry" />
        </mxCell>
        <mxCell id="5_1n4lwd3cMLtCb-UAz3-273" value="+ setTopping(toppings:ArrayList&lt;Topping&gt;): void" style="text;align=left;verticalAlign=top;spacingLeft=4;spacingRight=4;overflow=hidden;rotatable=0;points=[[0,0.5],[1,0.5]];portConstraint=eastwest;" vertex="1" parent="5_1n4lwd3cMLtCb-UAz3-264">
          <mxGeometry y="216" width="310" height="26" as="geometry" />
        </mxCell>
        <mxCell id="5_1n4lwd3cMLtCb-UAz3-274" value="+ getToasted(): bool" style="text;align=left;verticalAlign=top;spacingLeft=4;spacingRight=4;overflow=hidden;rotatable=0;points=[[0,0.5],[1,0.5]];portConstraint=eastwest;" vertex="1" parent="5_1n4lwd3cMLtCb-UAz3-264">
          <mxGeometry y="242" width="310" height="26" as="geometry" />
        </mxCell>
        <mxCell id="5_1n4lwd3cMLtCb-UAz3-275" value="+ setToasted(bool): void" style="text;align=left;verticalAlign=top;spacingLeft=4;spacingRight=4;overflow=hidden;rotatable=0;points=[[0,0.5],[1,0.5]];portConstraint=eastwest;" vertex="1" parent="5_1n4lwd3cMLtCb-UAz3-264">
          <mxGeometry y="268" width="310" height="26" as="geometry" />
        </mxCell>
        <mxCell id="5_1n4lwd3cMLtCb-UAz3-276" value="+ getPrice(): double" style="text;align=left;verticalAlign=top;spacingLeft=4;spacingRight=4;overflow=hidden;rotatable=0;points=[[0,0.5],[1,0.5]];portConstraint=eastwest;" vertex="1" parent="5_1n4lwd3cMLtCb-UAz3-264">
          <mxGeometry y="294" width="310" height="26" as="geometry" />
        </mxCell>
        <mxCell id="5_1n4lwd3cMLtCb-UAz3-277" style="edgeStyle=orthogonalEdgeStyle;rounded=0;orthogonalLoop=1;jettySize=auto;html=1;exitX=0.5;exitY=0;exitDx=0;exitDy=0;" edge="1" parent="WIyWlLk6GJQsqaUBKTNV-1" source="5_1n4lwd3cMLtCb-UAz3-278" target="5_1n4lwd3cMLtCb-UAz3-299">
          <mxGeometry relative="1" as="geometry">
            <Array as="points">
              <mxPoint x="2560" y="-1770" />
              <mxPoint x="2560" y="-1840" />
              <mxPoint x="1895" y="-1840" />
            </Array>
          </mxGeometry>
        </mxCell>
        <mxCell id="5_1n4lwd3cMLtCb-UAz3-278" value="Order" style="swimlane;fontStyle=0;align=center;verticalAlign=top;childLayout=stackLayout;horizontal=1;startSize=26;horizontalStack=0;resizeParent=1;resizeLast=0;collapsible=1;marginBottom=0;rounded=0;shadow=0;strokeWidth=1;" vertex="1" parent="WIyWlLk6GJQsqaUBKTNV-1">
          <mxGeometry x="2410" y="-1770" width="295" height="332" as="geometry">
            <mxRectangle x="130" y="380" width="160" height="26" as="alternateBounds" />
          </mxGeometry>
        </mxCell>
        <mxCell id="5_1n4lwd3cMLtCb-UAz3-279" value="-sandwich: ArrayList&lt;Sandwich&gt;" style="text;align=left;verticalAlign=top;spacingLeft=4;spacingRight=4;overflow=hidden;rotatable=0;points=[[0,0.5],[1,0.5]];portConstraint=eastwest;" vertex="1" parent="5_1n4lwd3cMLtCb-UAz3-278">
          <mxGeometry y="26" width="295" height="26" as="geometry" />
        </mxCell>
        <mxCell id="5_1n4lwd3cMLtCb-UAz3-280" value="-drink:ArrayList&lt;Drink&gt;" style="text;align=left;verticalAlign=top;spacingLeft=4;spacingRight=4;overflow=hidden;rotatable=0;points=[[0,0.5],[1,0.5]];portConstraint=eastwest;rounded=0;shadow=0;html=0;" vertex="1" parent="5_1n4lwd3cMLtCb-UAz3-278">
          <mxGeometry y="52" width="295" height="26" as="geometry" />
        </mxCell>
        <mxCell id="5_1n4lwd3cMLtCb-UAz3-281" value="-chips:ArrayList&lt;Chips&gt;" style="text;align=left;verticalAlign=top;spacingLeft=4;spacingRight=4;overflow=hidden;rotatable=0;points=[[0,0.5],[1,0.5]];portConstraint=eastwest;rounded=0;shadow=0;html=0;" vertex="1" parent="5_1n4lwd3cMLtCb-UAz3-278">
          <mxGeometry y="78" width="295" height="26" as="geometry" />
        </mxCell>
        <mxCell id="5_1n4lwd3cMLtCb-UAz3-282" value="" style="line;html=1;strokeWidth=1;align=left;verticalAlign=middle;spacingTop=-1;spacingLeft=3;spacingRight=3;rotatable=0;labelPosition=right;points=[];portConstraint=eastwest;" vertex="1" parent="5_1n4lwd3cMLtCb-UAz3-278">
          <mxGeometry y="104" width="295" height="8" as="geometry" />
        </mxCell>
        <mxCell id="5_1n4lwd3cMLtCb-UAz3-283" value="+ Order(sandwich: ArrayList&lt;Sandwich&gt;, &#xa;drink:ArrayList&lt;Drink&gt;, chip:ArrayList&lt;Chip&gt;)" style="text;align=left;verticalAlign=top;spacingLeft=4;spacingRight=4;overflow=hidden;rotatable=0;points=[[0,0.5],[1,0.5]];portConstraint=eastwest;rounded=0;shadow=0;html=0;" vertex="1" parent="5_1n4lwd3cMLtCb-UAz3-278">
          <mxGeometry y="112" width="295" height="38" as="geometry" />
        </mxCell>
        <mxCell id="5_1n4lwd3cMLtCb-UAz3-284" value="+ getSandwich(): ArrayList&lt;Sandwich&gt;" style="text;align=left;verticalAlign=top;spacingLeft=4;spacingRight=4;overflow=hidden;rotatable=0;points=[[0,0.5],[1,0.5]];portConstraint=eastwest;" vertex="1" parent="5_1n4lwd3cMLtCb-UAz3-278">
          <mxGeometry y="150" width="295" height="26" as="geometry" />
        </mxCell>
        <mxCell id="5_1n4lwd3cMLtCb-UAz3-285" value="+ setSandwich(sandwich:ArrayList&lt;Sandwich&gt;): void" style="text;align=left;verticalAlign=top;spacingLeft=4;spacingRight=4;overflow=hidden;rotatable=0;points=[[0,0.5],[1,0.5]];portConstraint=eastwest;" vertex="1" parent="5_1n4lwd3cMLtCb-UAz3-278">
          <mxGeometry y="176" width="295" height="26" as="geometry" />
        </mxCell>
        <mxCell id="5_1n4lwd3cMLtCb-UAz3-286" value="+ getDrink(): ArrayList&lt;Drink&gt;" style="text;align=left;verticalAlign=top;spacingLeft=4;spacingRight=4;overflow=hidden;rotatable=0;points=[[0,0.5],[1,0.5]];portConstraint=eastwest;" vertex="1" parent="5_1n4lwd3cMLtCb-UAz3-278">
          <mxGeometry y="202" width="295" height="26" as="geometry" />
        </mxCell>
        <mxCell id="5_1n4lwd3cMLtCb-UAz3-287" value="+ setDrink(drink:ArrayList&lt;Drink&gt;): void" style="text;align=left;verticalAlign=top;spacingLeft=4;spacingRight=4;overflow=hidden;rotatable=0;points=[[0,0.5],[1,0.5]];portConstraint=eastwest;" vertex="1" parent="5_1n4lwd3cMLtCb-UAz3-278">
          <mxGeometry y="228" width="295" height="26" as="geometry" />
        </mxCell>
        <mxCell id="5_1n4lwd3cMLtCb-UAz3-288" value="+ setChip(chip:ArrayList&lt;Chips&gt;): void" style="text;align=left;verticalAlign=top;spacingLeft=4;spacingRight=4;overflow=hidden;rotatable=0;points=[[0,0.5],[1,0.5]];portConstraint=eastwest;" vertex="1" parent="5_1n4lwd3cMLtCb-UAz3-278">
          <mxGeometry y="254" width="295" height="26" as="geometry" />
        </mxCell>
        <mxCell id="5_1n4lwd3cMLtCb-UAz3-289" value="+ getChip(): ArrayList&lt;Chip&gt;" style="text;align=left;verticalAlign=top;spacingLeft=4;spacingRight=4;overflow=hidden;rotatable=0;points=[[0,0.5],[1,0.5]];portConstraint=eastwest;" vertex="1" parent="5_1n4lwd3cMLtCb-UAz3-278">
          <mxGeometry y="280" width="295" height="26" as="geometry" />
        </mxCell>
        <mxCell id="5_1n4lwd3cMLtCb-UAz3-290" value="+ getPrice(): double" style="text;align=left;verticalAlign=top;spacingLeft=4;spacingRight=4;overflow=hidden;rotatable=0;points=[[0,0.5],[1,0.5]];portConstraint=eastwest;" vertex="1" parent="5_1n4lwd3cMLtCb-UAz3-278">
          <mxGeometry y="306" width="295" height="26" as="geometry" />
        </mxCell>
        <mxCell id="5_1n4lwd3cMLtCb-UAz3-291" style="edgeStyle=orthogonalEdgeStyle;rounded=0;orthogonalLoop=1;jettySize=auto;html=1;exitX=0.5;exitY=0;exitDx=0;exitDy=0;" edge="1" parent="WIyWlLk6GJQsqaUBKTNV-1" source="5_1n4lwd3cMLtCb-UAz3-292" target="5_1n4lwd3cMLtCb-UAz3-299">
          <mxGeometry relative="1" as="geometry">
            <Array as="points">
              <mxPoint x="1785" y="-1820" />
              <mxPoint x="1895" y="-1820" />
            </Array>
          </mxGeometry>
        </mxCell>
        <mxCell id="5_1n4lwd3cMLtCb-UAz3-292" value="Toppings" style="swimlane;fontStyle=0;align=center;verticalAlign=top;childLayout=stackLayout;horizontal=1;startSize=26;horizontalStack=0;resizeParent=1;resizeLast=0;collapsible=1;marginBottom=0;rounded=0;shadow=0;strokeWidth=1;" vertex="1" parent="WIyWlLk6GJQsqaUBKTNV-1">
          <mxGeometry x="1705" y="-1800" width="160" height="164" as="geometry">
            <mxRectangle x="340" y="380" width="170" height="26" as="alternateBounds" />
          </mxGeometry>
        </mxCell>
        <mxCell id="5_1n4lwd3cMLtCb-UAz3-293" value="-size: int" style="text;align=left;verticalAlign=top;spacingLeft=4;spacingRight=4;overflow=hidden;rotatable=0;points=[[0,0.5],[1,0.5]];portConstraint=eastwest;" vertex="1" parent="5_1n4lwd3cMLtCb-UAz3-292">
          <mxGeometry y="26" width="160" height="26" as="geometry" />
        </mxCell>
        <mxCell id="5_1n4lwd3cMLtCb-UAz3-294" value="" style="line;html=1;strokeWidth=1;align=left;verticalAlign=middle;spacingTop=-1;spacingLeft=3;spacingRight=3;rotatable=0;labelPosition=right;points=[];portConstraint=eastwest;" vertex="1" parent="5_1n4lwd3cMLtCb-UAz3-292">
          <mxGeometry y="52" width="160" height="8" as="geometry" />
        </mxCell>
        <mxCell id="5_1n4lwd3cMLtCb-UAz3-295" value="+ Toppings(size:int)" style="text;align=left;verticalAlign=top;spacingLeft=4;spacingRight=4;overflow=hidden;rotatable=0;points=[[0,0.5],[1,0.5]];portConstraint=eastwest;" vertex="1" parent="5_1n4lwd3cMLtCb-UAz3-292">
          <mxGeometry y="60" width="160" height="26" as="geometry" />
        </mxCell>
        <mxCell id="5_1n4lwd3cMLtCb-UAz3-296" value="+ getSize(): int" style="text;align=left;verticalAlign=top;spacingLeft=4;spacingRight=4;overflow=hidden;rotatable=0;points=[[0,0.5],[1,0.5]];portConstraint=eastwest;" vertex="1" parent="5_1n4lwd3cMLtCb-UAz3-292">
          <mxGeometry y="86" width="160" height="26" as="geometry" />
        </mxCell>
        <mxCell id="5_1n4lwd3cMLtCb-UAz3-297" value="+ setSize(size:int): void" style="text;align=left;verticalAlign=top;spacingLeft=4;spacingRight=4;overflow=hidden;rotatable=0;points=[[0,0.5],[1,0.5]];portConstraint=eastwest;" vertex="1" parent="5_1n4lwd3cMLtCb-UAz3-292">
          <mxGeometry y="112" width="160" height="26" as="geometry" />
        </mxCell>
        <mxCell id="5_1n4lwd3cMLtCb-UAz3-298" value="+ getPrice(): double" style="text;align=left;verticalAlign=top;spacingLeft=4;spacingRight=4;overflow=hidden;rotatable=0;points=[[0,0.5],[1,0.5]];portConstraint=eastwest;" vertex="1" parent="5_1n4lwd3cMLtCb-UAz3-292">
          <mxGeometry y="138" width="160" height="26" as="geometry" />
        </mxCell>
        <mxCell id="5_1n4lwd3cMLtCb-UAz3-299" value="IPrice" style="swimlane;fontStyle=0;align=center;verticalAlign=top;childLayout=stackLayout;horizontal=1;startSize=26;horizontalStack=0;resizeParent=1;resizeLast=0;collapsible=1;marginBottom=0;rounded=0;shadow=0;strokeWidth=1;" vertex="1" parent="WIyWlLk6GJQsqaUBKTNV-1">
          <mxGeometry x="1815" y="-2040" width="160" height="60" as="geometry">
            <mxRectangle x="340" y="380" width="170" height="26" as="alternateBounds" />
          </mxGeometry>
        </mxCell>
        <mxCell id="5_1n4lwd3cMLtCb-UAz3-300" value="+ getPrice() : double" style="text;align=left;verticalAlign=top;spacingLeft=4;spacingRight=4;overflow=hidden;rotatable=0;points=[[0,0.5],[1,0.5]];portConstraint=eastwest;" vertex="1" parent="5_1n4lwd3cMLtCb-UAz3-299">
          <mxGeometry y="26" width="160" height="26" as="geometry" />
        </mxCell>
        <mxCell id="5_1n4lwd3cMLtCb-UAz3-301" style="edgeStyle=orthogonalEdgeStyle;rounded=0;orthogonalLoop=1;jettySize=auto;html=1;exitX=0.5;exitY=0;exitDx=0;exitDy=0;" edge="1" parent="WIyWlLk6GJQsqaUBKTNV-1" source="5_1n4lwd3cMLtCb-UAz3-302" target="5_1n4lwd3cMLtCb-UAz3-299">
          <mxGeometry relative="1" as="geometry" />
        </mxCell>
        <mxCell id="5_1n4lwd3cMLtCb-UAz3-302" value="Bread" style="swimlane;fontStyle=0;align=center;verticalAlign=top;childLayout=stackLayout;horizontal=1;startSize=26;horizontalStack=0;resizeParent=1;resizeLast=0;collapsible=1;marginBottom=0;rounded=0;shadow=0;strokeWidth=1;" vertex="1" parent="WIyWlLk6GJQsqaUBKTNV-1">
          <mxGeometry x="1130" y="-1800" width="190" height="242" as="geometry">
            <mxRectangle x="340" y="380" width="170" height="26" as="alternateBounds" />
          </mxGeometry>
        </mxCell>
        <mxCell id="5_1n4lwd3cMLtCb-UAz3-303" value="- size: int" style="text;align=left;verticalAlign=top;spacingLeft=4;spacingRight=4;overflow=hidden;rotatable=0;points=[[0,0.5],[1,0.5]];portConstraint=eastwest;" vertex="1" parent="5_1n4lwd3cMLtCb-UAz3-302">
          <mxGeometry y="26" width="190" height="26" as="geometry" />
        </mxCell>
        <mxCell id="5_1n4lwd3cMLtCb-UAz3-304" value="-type: String" style="text;align=left;verticalAlign=top;spacingLeft=4;spacingRight=4;overflow=hidden;rotatable=0;points=[[0,0.5],[1,0.5]];portConstraint=eastwest;" vertex="1" parent="5_1n4lwd3cMLtCb-UAz3-302">
          <mxGeometry y="52" width="190" height="26" as="geometry" />
        </mxCell>
        <mxCell id="5_1n4lwd3cMLtCb-UAz3-305" value="" style="line;html=1;strokeWidth=1;align=left;verticalAlign=middle;spacingTop=-1;spacingLeft=3;spacingRight=3;rotatable=0;labelPosition=right;points=[];portConstraint=eastwest;" vertex="1" parent="5_1n4lwd3cMLtCb-UAz3-302">
          <mxGeometry y="78" width="190" height="8" as="geometry" />
        </mxCell>
        <mxCell id="5_1n4lwd3cMLtCb-UAz3-306" value="+ Bread(size: int, price: double)" style="text;align=left;verticalAlign=top;spacingLeft=4;spacingRight=4;overflow=hidden;rotatable=0;points=[[0,0.5],[1,0.5]];portConstraint=eastwest;" vertex="1" parent="5_1n4lwd3cMLtCb-UAz3-302">
          <mxGeometry y="86" width="190" height="26" as="geometry" />
        </mxCell>
        <mxCell id="5_1n4lwd3cMLtCb-UAz3-307" value="+ getSize(): int" style="text;align=left;verticalAlign=top;spacingLeft=4;spacingRight=4;overflow=hidden;rotatable=0;points=[[0,0.5],[1,0.5]];portConstraint=eastwest;" vertex="1" parent="5_1n4lwd3cMLtCb-UAz3-302">
          <mxGeometry y="112" width="190" height="26" as="geometry" />
        </mxCell>
        <mxCell id="5_1n4lwd3cMLtCb-UAz3-308" value="+ setSize(int): void" style="text;align=left;verticalAlign=top;spacingLeft=4;spacingRight=4;overflow=hidden;rotatable=0;points=[[0,0.5],[1,0.5]];portConstraint=eastwest;" vertex="1" parent="5_1n4lwd3cMLtCb-UAz3-302">
          <mxGeometry y="138" width="190" height="26" as="geometry" />
        </mxCell>
        <mxCell id="5_1n4lwd3cMLtCb-UAz3-309" value="+ setType(String): void" style="text;align=left;verticalAlign=top;spacingLeft=4;spacingRight=4;overflow=hidden;rotatable=0;points=[[0,0.5],[1,0.5]];portConstraint=eastwest;" vertex="1" parent="5_1n4lwd3cMLtCb-UAz3-302">
          <mxGeometry y="164" width="190" height="26" as="geometry" />
        </mxCell>
        <mxCell id="5_1n4lwd3cMLtCb-UAz3-310" value="+ getType(): String" style="text;align=left;verticalAlign=top;spacingLeft=4;spacingRight=4;overflow=hidden;rotatable=0;points=[[0,0.5],[1,0.5]];portConstraint=eastwest;" vertex="1" parent="5_1n4lwd3cMLtCb-UAz3-302">
          <mxGeometry y="190" width="190" height="26" as="geometry" />
        </mxCell>
        <mxCell id="5_1n4lwd3cMLtCb-UAz3-311" value="+ getPrice(): double" style="text;align=left;verticalAlign=top;spacingLeft=4;spacingRight=4;overflow=hidden;rotatable=0;points=[[0,0.5],[1,0.5]];portConstraint=eastwest;" vertex="1" parent="5_1n4lwd3cMLtCb-UAz3-302">
          <mxGeometry y="216" width="190" height="26" as="geometry" />
        </mxCell>
        <mxCell id="5_1n4lwd3cMLtCb-UAz3-312" style="edgeStyle=orthogonalEdgeStyle;rounded=0;orthogonalLoop=1;jettySize=auto;html=1;exitX=0.5;exitY=0;exitDx=0;exitDy=0;" edge="1" parent="WIyWlLk6GJQsqaUBKTNV-1" source="5_1n4lwd3cMLtCb-UAz3-313" target="5_1n4lwd3cMLtCb-UAz3-299">
          <mxGeometry relative="1" as="geometry">
            <Array as="points">
              <mxPoint x="1600" y="-1840" />
              <mxPoint x="1895" y="-1840" />
            </Array>
          </mxGeometry>
        </mxCell>
        <mxCell id="5_1n4lwd3cMLtCb-UAz3-313" value="Drink" style="swimlane;fontStyle=0;align=center;verticalAlign=top;childLayout=stackLayout;horizontal=1;startSize=26;horizontalStack=0;resizeParent=1;resizeLast=0;collapsible=1;marginBottom=0;rounded=0;shadow=0;strokeWidth=1;" vertex="1" parent="WIyWlLk6GJQsqaUBKTNV-1">
          <mxGeometry x="1520" y="-1800" width="160" height="164" as="geometry">
            <mxRectangle x="340" y="380" width="170" height="26" as="alternateBounds" />
          </mxGeometry>
        </mxCell>
        <mxCell id="5_1n4lwd3cMLtCb-UAz3-314" value="- size: int" style="text;align=left;verticalAlign=top;spacingLeft=4;spacingRight=4;overflow=hidden;rotatable=0;points=[[0,0.5],[1,0.5]];portConstraint=eastwest;" vertex="1" parent="5_1n4lwd3cMLtCb-UAz3-313">
          <mxGeometry y="26" width="160" height="26" as="geometry" />
        </mxCell>
        <mxCell id="5_1n4lwd3cMLtCb-UAz3-315" value="" style="line;html=1;strokeWidth=1;align=left;verticalAlign=middle;spacingTop=-1;spacingLeft=3;spacingRight=3;rotatable=0;labelPosition=right;points=[];portConstraint=eastwest;" vertex="1" parent="5_1n4lwd3cMLtCb-UAz3-313">
          <mxGeometry y="52" width="160" height="8" as="geometry" />
        </mxCell>
        <mxCell id="5_1n4lwd3cMLtCb-UAz3-316" value="+ Drink(size:int)" style="text;align=left;verticalAlign=top;spacingLeft=4;spacingRight=4;overflow=hidden;rotatable=0;points=[[0,0.5],[1,0.5]];portConstraint=eastwest;" vertex="1" parent="5_1n4lwd3cMLtCb-UAz3-313">
          <mxGeometry y="60" width="160" height="26" as="geometry" />
        </mxCell>
        <mxCell id="5_1n4lwd3cMLtCb-UAz3-317" value="+ getSize(): int" style="text;align=left;verticalAlign=top;spacingLeft=4;spacingRight=4;overflow=hidden;rotatable=0;points=[[0,0.5],[1,0.5]];portConstraint=eastwest;" vertex="1" parent="5_1n4lwd3cMLtCb-UAz3-313">
          <mxGeometry y="86" width="160" height="26" as="geometry" />
        </mxCell>
        <mxCell id="5_1n4lwd3cMLtCb-UAz3-318" value="+ setSize(size:int): void" style="text;align=left;verticalAlign=top;spacingLeft=4;spacingRight=4;overflow=hidden;rotatable=0;points=[[0,0.5],[1,0.5]];portConstraint=eastwest;" vertex="1" parent="5_1n4lwd3cMLtCb-UAz3-313">
          <mxGeometry y="112" width="160" height="26" as="geometry" />
        </mxCell>
        <mxCell id="5_1n4lwd3cMLtCb-UAz3-319" value="+ getPrice(): double" style="text;align=left;verticalAlign=top;spacingLeft=4;spacingRight=4;overflow=hidden;rotatable=0;points=[[0,0.5],[1,0.5]];portConstraint=eastwest;" vertex="1" parent="5_1n4lwd3cMLtCb-UAz3-313">
          <mxGeometry y="138" width="160" height="26" as="geometry" />
        </mxCell>
        <mxCell id="5_1n4lwd3cMLtCb-UAz3-320" style="edgeStyle=orthogonalEdgeStyle;rounded=0;orthogonalLoop=1;jettySize=auto;html=1;exitX=0.5;exitY=0;exitDx=0;exitDy=0;" edge="1" parent="WIyWlLk6GJQsqaUBKTNV-1" source="5_1n4lwd3cMLtCb-UAz3-321" target="5_1n4lwd3cMLtCb-UAz3-292">
          <mxGeometry relative="1" as="geometry" />
        </mxCell>
        <mxCell id="5_1n4lwd3cMLtCb-UAz3-321" value="PremiumTopping" style="swimlane;fontStyle=0;align=center;verticalAlign=top;childLayout=stackLayout;horizontal=1;startSize=26;horizontalStack=0;resizeParent=1;resizeLast=0;collapsible=1;marginBottom=0;rounded=0;shadow=0;strokeWidth=1;" vertex="1" parent="WIyWlLk6GJQsqaUBKTNV-1">
          <mxGeometry x="1570" y="-1540" width="240" height="240" as="geometry">
            <mxRectangle x="340" y="380" width="170" height="26" as="alternateBounds" />
          </mxGeometry>
        </mxCell>
        <mxCell id="5_1n4lwd3cMLtCb-UAz3-322" value="-extra: bool" style="text;align=left;verticalAlign=top;spacingLeft=4;spacingRight=4;overflow=hidden;rotatable=0;points=[[0,0.5],[1,0.5]];portConstraint=eastwest;" vertex="1" parent="5_1n4lwd3cMLtCb-UAz3-321">
          <mxGeometry y="26" width="240" height="26" as="geometry" />
        </mxCell>
        <mxCell id="5_1n4lwd3cMLtCb-UAz3-323" value="-type: String" style="text;align=left;verticalAlign=top;spacingLeft=4;spacingRight=4;overflow=hidden;rotatable=0;points=[[0,0.5],[1,0.5]];portConstraint=eastwest;" vertex="1" parent="5_1n4lwd3cMLtCb-UAz3-321">
          <mxGeometry y="52" width="240" height="26" as="geometry" />
        </mxCell>
        <mxCell id="5_1n4lwd3cMLtCb-UAz3-324" value="" style="line;html=1;strokeWidth=1;align=left;verticalAlign=middle;spacingTop=-1;spacingLeft=3;spacingRight=3;rotatable=0;labelPosition=right;points=[];portConstraint=eastwest;" vertex="1" parent="5_1n4lwd3cMLtCb-UAz3-321">
          <mxGeometry y="78" width="240" height="8" as="geometry" />
        </mxCell>
        <mxCell id="5_1n4lwd3cMLtCb-UAz3-325" value="+ PremiumTopping(extra:bool, type:String)" style="text;align=left;verticalAlign=top;spacingLeft=4;spacingRight=4;overflow=hidden;rotatable=0;points=[[0,0.5],[1,0.5]];portConstraint=eastwest;" vertex="1" parent="5_1n4lwd3cMLtCb-UAz3-321">
          <mxGeometry y="86" width="240" height="24" as="geometry" />
        </mxCell>
        <mxCell id="5_1n4lwd3cMLtCb-UAz3-326" value="+ getExtra(): bool" style="text;align=left;verticalAlign=top;spacingLeft=4;spacingRight=4;overflow=hidden;rotatable=0;points=[[0,0.5],[1,0.5]];portConstraint=eastwest;" vertex="1" parent="5_1n4lwd3cMLtCb-UAz3-321">
          <mxGeometry y="110" width="240" height="26" as="geometry" />
        </mxCell>
        <mxCell id="5_1n4lwd3cMLtCb-UAz3-327" value="+ setExtra(bool): void" style="text;align=left;verticalAlign=top;spacingLeft=4;spacingRight=4;overflow=hidden;rotatable=0;points=[[0,0.5],[1,0.5]];portConstraint=eastwest;" vertex="1" parent="5_1n4lwd3cMLtCb-UAz3-321">
          <mxGeometry y="136" width="240" height="26" as="geometry" />
        </mxCell>
        <mxCell id="5_1n4lwd3cMLtCb-UAz3-328" value="+ setType(String): void" style="text;align=left;verticalAlign=top;spacingLeft=4;spacingRight=4;overflow=hidden;rotatable=0;points=[[0,0.5],[1,0.5]];portConstraint=eastwest;" vertex="1" parent="5_1n4lwd3cMLtCb-UAz3-321">
          <mxGeometry y="162" width="240" height="26" as="geometry" />
        </mxCell>
        <mxCell id="5_1n4lwd3cMLtCb-UAz3-329" value="+ getType(): String" style="text;align=left;verticalAlign=top;spacingLeft=4;spacingRight=4;overflow=hidden;rotatable=0;points=[[0,0.5],[1,0.5]];portConstraint=eastwest;" vertex="1" parent="5_1n4lwd3cMLtCb-UAz3-321">
          <mxGeometry y="188" width="240" height="26" as="geometry" />
        </mxCell>
        <mxCell id="5_1n4lwd3cMLtCb-UAz3-330" value="+ getPrice(): double" style="text;align=left;verticalAlign=top;spacingLeft=4;spacingRight=4;overflow=hidden;rotatable=0;points=[[0,0.5],[1,0.5]];portConstraint=eastwest;" vertex="1" parent="5_1n4lwd3cMLtCb-UAz3-321">
          <mxGeometry y="214" width="240" height="26" as="geometry" />
        </mxCell>
        <mxCell id="5_1n4lwd3cMLtCb-UAz3-331" style="edgeStyle=orthogonalEdgeStyle;rounded=0;orthogonalLoop=1;jettySize=auto;html=1;exitX=0.5;exitY=0;exitDx=0;exitDy=0;" edge="1" parent="WIyWlLk6GJQsqaUBKTNV-1" source="5_1n4lwd3cMLtCb-UAz3-332" target="5_1n4lwd3cMLtCb-UAz3-292">
          <mxGeometry relative="1" as="geometry" />
        </mxCell>
        <mxCell id="5_1n4lwd3cMLtCb-UAz3-332" value="FreeTopping" style="swimlane;fontStyle=0;align=center;verticalAlign=top;childLayout=stackLayout;horizontal=1;startSize=26;horizontalStack=0;resizeParent=1;resizeLast=0;collapsible=1;marginBottom=0;rounded=0;shadow=0;strokeWidth=1;" vertex="1" parent="WIyWlLk6GJQsqaUBKTNV-1">
          <mxGeometry x="1830" y="-1540" width="220" height="170" as="geometry">
            <mxRectangle x="340" y="380" width="170" height="26" as="alternateBounds" />
          </mxGeometry>
        </mxCell>
        <mxCell id="5_1n4lwd3cMLtCb-UAz3-333" value="-type: String" style="text;align=left;verticalAlign=top;spacingLeft=4;spacingRight=4;overflow=hidden;rotatable=0;points=[[0,0.5],[1,0.5]];portConstraint=eastwest;" vertex="1" parent="5_1n4lwd3cMLtCb-UAz3-332">
          <mxGeometry y="26" width="220" height="26" as="geometry" />
        </mxCell>
        <mxCell id="5_1n4lwd3cMLtCb-UAz3-334" value="" style="line;html=1;strokeWidth=1;align=left;verticalAlign=middle;spacingTop=-1;spacingLeft=3;spacingRight=3;rotatable=0;labelPosition=right;points=[];portConstraint=eastwest;" vertex="1" parent="5_1n4lwd3cMLtCb-UAz3-332">
          <mxGeometry y="52" width="220" height="8" as="geometry" />
        </mxCell>
        <mxCell id="5_1n4lwd3cMLtCb-UAz3-335" value="+ FreeTopping(extra:bool, type:String)" style="text;align=left;verticalAlign=top;spacingLeft=4;spacingRight=4;overflow=hidden;rotatable=0;points=[[0,0.5],[1,0.5]];portConstraint=eastwest;" vertex="1" parent="5_1n4lwd3cMLtCb-UAz3-332">
          <mxGeometry y="60" width="220" height="24" as="geometry" />
        </mxCell>
        <mxCell id="5_1n4lwd3cMLtCb-UAz3-336" value="+ setType(String): void" style="text;align=left;verticalAlign=top;spacingLeft=4;spacingRight=4;overflow=hidden;rotatable=0;points=[[0,0.5],[1,0.5]];portConstraint=eastwest;" vertex="1" parent="5_1n4lwd3cMLtCb-UAz3-332">
          <mxGeometry y="84" width="220" height="26" as="geometry" />
        </mxCell>
        <mxCell id="5_1n4lwd3cMLtCb-UAz3-337" value="+ getType(): String" style="text;align=left;verticalAlign=top;spacingLeft=4;spacingRight=4;overflow=hidden;rotatable=0;points=[[0,0.5],[1,0.5]];portConstraint=eastwest;" vertex="1" parent="5_1n4lwd3cMLtCb-UAz3-332">
          <mxGeometry y="110" width="220" height="26" as="geometry" />
        </mxCell>
        <mxCell id="5_1n4lwd3cMLtCb-UAz3-338" value="+ getPrice(): double" style="text;align=left;verticalAlign=top;spacingLeft=4;spacingRight=4;overflow=hidden;rotatable=0;points=[[0,0.5],[1,0.5]];portConstraint=eastwest;" vertex="1" parent="5_1n4lwd3cMLtCb-UAz3-332">
          <mxGeometry y="136" width="220" height="26" as="geometry" />
        </mxCell>
        <mxCell id="5_1n4lwd3cMLtCb-UAz3-339" style="edgeStyle=orthogonalEdgeStyle;rounded=0;orthogonalLoop=1;jettySize=auto;html=1;exitX=0.5;exitY=0;exitDx=0;exitDy=0;" edge="1" parent="WIyWlLk6GJQsqaUBKTNV-1" source="5_1n4lwd3cMLtCb-UAz3-340" target="5_1n4lwd3cMLtCb-UAz3-299">
          <mxGeometry relative="1" as="geometry">
            <Array as="points">
              <mxPoint x="1420" y="-1860" />
              <mxPoint x="1895" y="-1860" />
            </Array>
          </mxGeometry>
        </mxCell>
        <mxCell id="5_1n4lwd3cMLtCb-UAz3-340" value="Chips" style="swimlane;fontStyle=0;align=center;verticalAlign=top;childLayout=stackLayout;horizontal=1;startSize=26;horizontalStack=0;resizeParent=1;resizeLast=0;collapsible=1;marginBottom=0;rounded=0;shadow=0;strokeWidth=1;" vertex="1" parent="WIyWlLk6GJQsqaUBKTNV-1">
          <mxGeometry x="1340" y="-1800" width="160" height="164" as="geometry">
            <mxRectangle x="340" y="380" width="170" height="26" as="alternateBounds" />
          </mxGeometry>
        </mxCell>
        <mxCell id="5_1n4lwd3cMLtCb-UAz3-341" value="- size: int" style="text;align=left;verticalAlign=top;spacingLeft=4;spacingRight=4;overflow=hidden;rotatable=0;points=[[0,0.5],[1,0.5]];portConstraint=eastwest;" vertex="1" parent="5_1n4lwd3cMLtCb-UAz3-340">
          <mxGeometry y="26" width="160" height="26" as="geometry" />
        </mxCell>
        <mxCell id="5_1n4lwd3cMLtCb-UAz3-342" value="" style="line;html=1;strokeWidth=1;align=left;verticalAlign=middle;spacingTop=-1;spacingLeft=3;spacingRight=3;rotatable=0;labelPosition=right;points=[];portConstraint=eastwest;" vertex="1" parent="5_1n4lwd3cMLtCb-UAz3-340">
          <mxGeometry y="52" width="160" height="8" as="geometry" />
        </mxCell>
        <mxCell id="5_1n4lwd3cMLtCb-UAz3-343" value="+ Chips(size:int)" style="text;align=left;verticalAlign=top;spacingLeft=4;spacingRight=4;overflow=hidden;rotatable=0;points=[[0,0.5],[1,0.5]];portConstraint=eastwest;" vertex="1" parent="5_1n4lwd3cMLtCb-UAz3-340">
          <mxGeometry y="60" width="160" height="26" as="geometry" />
        </mxCell>
        <mxCell id="5_1n4lwd3cMLtCb-UAz3-344" value="+ getSize(): int" style="text;align=left;verticalAlign=top;spacingLeft=4;spacingRight=4;overflow=hidden;rotatable=0;points=[[0,0.5],[1,0.5]];portConstraint=eastwest;" vertex="1" parent="5_1n4lwd3cMLtCb-UAz3-340">
          <mxGeometry y="86" width="160" height="26" as="geometry" />
        </mxCell>
        <mxCell id="5_1n4lwd3cMLtCb-UAz3-345" value="+ setSize(size:int): void" style="text;align=left;verticalAlign=top;spacingLeft=4;spacingRight=4;overflow=hidden;rotatable=0;points=[[0,0.5],[1,0.5]];portConstraint=eastwest;" vertex="1" parent="5_1n4lwd3cMLtCb-UAz3-340">
          <mxGeometry y="112" width="160" height="26" as="geometry" />
        </mxCell>
        <mxCell id="5_1n4lwd3cMLtCb-UAz3-346" value="+ getPrice(): double" style="text;align=left;verticalAlign=top;spacingLeft=4;spacingRight=4;overflow=hidden;rotatable=0;points=[[0,0.5],[1,0.5]];portConstraint=eastwest;" vertex="1" parent="5_1n4lwd3cMLtCb-UAz3-340">
          <mxGeometry y="138" width="160" height="26" as="geometry" />
        </mxCell>
      </root>
    </mxGraphModel>
  </diagram>
</mxfile>
